<?xml version="1.0" encoding="UTF-8"?><svg id="Layer_2" xmlns="http://www.w3.org/2000/svg" width="282.6" height="283.39" viewBox="0 0 282.6 283.39"><defs><style>.cls-1{fill:#faf9f6;}.cls-2{fill:#b19d63;}.cls-3{fill:#fefefe;}</style></defs><g id="Layer_1-2"><path class="cls-2" d="M142.06,0c1.18,3.74,2.83,7.28,4.49,10.82,8.06,17.23,18.1,33.26,29.68,48.33,5.38,7.01,11.12,13.72,17.15,20.18,13.89,14.88,29.25,28.03,46.07,39.47,9.92,6.75,20.24,12.84,31.01,18.16,3.05,1.5,6.12,2.94,9.17,4.44,.94,.46,1.93,.71,2.98,.99-21.4,8.53-40.8,20.34-58.91,34.31-18.15,14-34.33,30.03-48.48,48.08-14.14,18.04-25.86,37.52-35.01,58.6-.13-.3-.34-.77-.53-1.24-4.95-12.36-11.25-24.02-18.28-35.3-7.5-12.03-15.94-23.37-25.2-34.1-3.68-4.27-7.57-8.34-11.51-12.38-6.53-6.71-13.36-13.08-20.55-19.08-10.74-8.95-22.1-17.01-34.08-24.2-9.26-5.56-18.81-10.56-28.67-14.97-.26-.11-.52-.22-.76-.36-.23-.14-.62-.15-.63-.48-.01-.44,.44-.39,.71-.5,11.86-4.69,23.06-10.66,33.88-17.36,13.28-8.22,25.74-17.56,37.41-27.94,16.27-14.46,30.59-30.64,42.98-48.54,9.9-14.31,18.32-29.44,25.35-45.35,.22-.5,.53-.99,.53-1.57h1.2Zm-1.07,91.27c-27.88-.15-50.91,22.52-50.88,50.83,.03,28.33,23.01,50.73,50.72,50.76,27.93,.03,50.5-22.59,50.82-50.18,.33-28.44-22.74-51.47-50.66-51.41Zm1.49-66.14c-.4,.44-.36,.85-.4,1.24-.72,7.78-2.35,15.38-4.69,22.83-1.18,3.77-2.52,7.5-4.11,11.12-.42,.95-.21,1.23,.77,1.06,.16-.03,.32-.02,.48-.03,5.15-.42,10.29-.36,15.43,.25,1.28,.15,1.36,.08,.9-1.12-2.28-5.98-4.09-12.1-5.53-18.33-1.28-5.57-2.19-11.2-2.86-17.02Zm6.52,197.62c-1.53-.15-2.87,.19-4.22,.21-4.28,.07-8.55,.11-12.8-.43-.62-.08-.85,.08-.58,.7,.13,.29,.22,.6,.33,.9,3.35,9.05,5.76,18.35,7.25,27.89,.18,1.12,.17,2.3,.74,3.67,1.47-11.59,4.65-22.38,9.27-32.94Zm104.46-79.44c0-.06,.02-.12,.03-.17-.4-.1-.8-.23-1.21-.28-5.15-.72-10.19-1.92-15.17-3.4-5.02-1.49-9.92-3.31-14.7-5.45-.7-.31-1.03-.32-.92,.59,.09,.75,.07,1.52,.13,2.27,.37,4.52,.18,9.02-.22,13.52-.11,1.28-.19,1.27,.98,.83,7.61-2.84,15.39-5.07,23.38-6.56,2.56-.48,5.14-.91,7.71-1.36Zm-193.36,6.79c.25-.32,.18-.61,.16-.88-.41-5.19-.43-10.37,.15-15.54,.1-.88-.33-.66-.85-.47-2.33,.81-4.67,1.64-7.02,2.37-7.96,2.48-16.1,4.14-24.4,5.24,5.5,.9,10.95,2.03,16.3,3.58,5.36,1.55,10.57,3.52,15.67,5.71Zm93.71-73.13c.22,2.19,.43,4.3,.5,6.42,.03,.98,.45,1.37,1.31,1.5,.89,.14,1.75,.46,2.3-.76,1.3-2.87,2.73-5.69,4.1-8.53,.21-.43,.68-.98-.19-1.23-.65-.19-1.41-.63-1.86,.34-.47,1.01-.92,2.04-1.37,3.06-.63,1.4-1.26,2.79-1.89,4.19-.31-2.61-.53-5.13-.67-7.66-.05-.86-.38-1.15-1.15-1.34-1.03-.26-1.51,.12-1.9,1.05-.94,2.21-1.99,4.38-3.01,6.59-.35-.24-.29-.46-.29-.64-.07-2.28-.14-4.55-.21-6.83-.04-1.19-.49-1.61-1.71-1.55-1.13,.05-.68,.93-.66,1.44,.12,2.95,.39,5.9,.44,8.85,.02,1.34,.8,1.57,1.76,1.8,.97,.24,1.54-.1,1.94-1.06,.79-1.9,1.7-3.76,2.56-5.63Zm12.45,123.22c.51-.16,.68,.19,.92,.35,1.97,1.29,3.95,2.57,5.89,3.91,1.11,.77,1.98,.25,2.82-.4,.91-.7,.16-1.37-.17-1.99-1.37-2.57-2.8-5.12-4.16-7.7-.36-.67-.73-.85-1.42-.49-.69,.36-.98,.75-.55,1.51,.81,1.43,1.59,2.87,2.35,4.32,.22,.42,.68,.78,.55,1.35-.34,.05-.49-.16-.69-.29-1.87-1.23-3.73-2.47-5.61-3.69-1.17-.76-2.08,.05-2.93,.65-.79,.57-.16,1.23,.14,1.8,1.4,2.61,2.83,5.19,4.21,7.81,.34,.65,.68,.92,1.41,.53,.72-.39,1.07-.8,.54-1.59-.29-.43-.52-.9-.76-1.36-.84-1.56-1.68-3.13-2.54-4.72Zm-89.63-55.07c.01,.08,.02,.15,.04,.23-.23,.14-.46,.27-.7,.4-1.89,1.04-3.77,2.09-5.66,3.12-1.2,.66-.93,1.78-.8,2.77,.12,.94,.99,.74,1.65,.74,2.84,0,5.67-.04,8.51-.03,.78,0,1.28-.08,1.28-1.07,0-.95-.42-1.16-1.24-1.1-.76,.05-1.52,.02-2.28,.02-1.44,0-2.88,0-4.35,0,.07-.38,.29-.41,.46-.5,2.14-1.16,4.28-2.33,6.42-3.48,1.13-.61,1.01-1.65,.85-2.63-.16-.93-.99-.75-1.65-.74-2.87,.04-5.75,.12-8.62,.14-.8,0-1.16,.24-1.16,1.09,0,.87,.41,1.06,1.19,1.05,2.03-.04,4.05-.01,6.08-.01Zm131.09-7.14c-3.71,.01-5.42,1.42-5.8,4.76-.28,2.42,.88,4.67,2.95,5.49,2.12,.84,4.3,.8,6.41-.07,1.13-.47,1.9-1.36,2.2-2.54,1.08-4.33-.92-7.76-5.76-7.65Zm-16.06-31.03c2.2-.27,4.11-1.48,5.39-3.65,.72-1.21,.8-2.46,.27-3.79-.68-1.71-1.93-3.01-3.04-4.42-.37-.48-.82-.38-1.26-.03-2.46,1.92-4.91,3.83-7.38,5.73-.6,.46-.67,.91-.2,1.51,.9,1.18,1.77,2.37,2.87,3.37,.86,.79,1.87,1.2,3.35,1.29Zm-109.58,25.59c.01-3.04-2.05-5.07-5.44-5.34-3.13-.25-5.12,1.2-5.82,4.25-.21,.93-.37,1.88-.64,2.8-.26,.92,.09,1.34,.96,1.52,3,.62,6,1.25,9.01,1.89,.59,.12,1.04,.02,1.17-.65,.29-1.48,.79-2.93,.75-4.47Zm123.9,27.53c.1,.14,.18,.22,.23,.33,.74,1.54,1.85,2.3,3.22,2.21,1.29-.09,2.36-1,2.8-2.6,.34-1.23,.53-2.5,.78-3.75,.14-.71-.24-1.05-.87-1.17-3.1-.58-6.2-1.14-9.29-1.74-.92-.18-1.08,.41-1.21,1.07-.13,.66-.07,1.18,.78,1.29,.87,.11,1.72,.32,2.59,.47,.98,.17,1.21,.75,.61,1.56-.28,.37-.67,.55-1.11,.65-1.01,.23-2.03,.44-3.03,.68-1.13,.27-1.04,1.27-.98,2.03,.07,.93,.86,.43,1.32,.33,1.43-.31,2.94-.42,4.17-1.37ZM105.31,82.51c-.08,0-.16,0-.24,0-2.1,.23-3.58,1.68-5.23,2.76-.4,.26-.18,.71,.05,1.07,1.73,2.69,3.47,5.37,5.17,8.08,.51,.81,1,.4,1.5,.09,.53-.32,1.02-.69,.51-1.43-.52-.75-1.01-1.54-1.49-2.32-.56-.91-.35-1.33,.73-1.46,.42-.05,.79,.12,1.13,.34,.77,.5,1.53,1.01,2.29,1.53,.93,.64,2.11,.42,2.67-.5,.19-.32,.08-.53-.18-.71-1.2-.79-2.26-1.86-3.66-2.25-.89-.25-.77-.54-.52-1.21,.69-1.87-.77-3.96-2.71-3.99Zm77.76,10.5c1.77,.4,3.05-.15,3.85-1.56,.63-1.1,.44-2.5-.66-3.62-.95-.96-2.03-1.79-3.05-2.68-.55-.48-.97-.33-1.41,.2-2.01,2.43-4.01,4.87-6.07,7.26-.59,.69-.19,1.04,.28,1.47,.49,.43,.95,.78,1.51,.1,.61-.74,1.26-1.45,1.82-2.22,.54-.75,.94-.51,1.37,.07,.37,.5,.37,1.05,.22,1.6-.22,.81-.38,1.65-.74,2.4-.53,1.12,.07,1.7,.84,2.29,.51,.39,.89,.34,1.07-.31,.44-1.6,1.22-3.14,.95-5Zm-100.56,30.11c.24-.01,.48-.01,.72-.04,.16-.02,.32-.06,.46-.12,2.12-.86,2.89-2.69,3.17-4.73,.26-1.83-.66-3.18-2.28-3.97-1.94-.94-3.94-1.76-5.88-2.7-.92-.45-1.27-.03-1.64,.72-.4,.82-.04,1.14,.65,1.44,1.79,.78,3.57,1.59,5.35,2.42,.81,.38,1.56,.84,1.69,1.86,.24,1.93-1.41,3.24-3.22,2.49-1.99-.83-3.96-1.72-5.9-2.65-.93-.44-1.11,.2-1.37,.78-.23,.5-.56,.99,.27,1.35,2.05,.89,4.07,1.85,6.12,2.76,.58,.26,1.2,.45,1.86,.4Zm19.01,77.83c-.21,.79,.45,1.12,1.01,1.49,.88,.59,1.18,.46,1.32-.57,.11-.87,.29-1.74,.29-2.61,0-2.01,.62-3.51,2.78-4.04,.6-.15,1.16-.52,1.71-.84,.45-.26,1.28-.27,1.18-.97-.09-.6-.81-.82-1.32-1.12-.45-.26-.86,.07-1.24,.25-.76,.36-1.49,.77-2.22,1.17-.65,.35-.97,.27-.84-.57,.12-.79,.11-1.61,.32-2.37,.31-1.09-.27-1.63-1.05-2.14-.71-.46-1.09-.32-1.19,.55-.15,1.39-.38,2.77-.47,4.16-.05,.8-.4,1.21-1.09,1.52-1.42,.64-2.81,1.34-4.2,2.03-.3,.15-.75,.25-.55,.76,.27,.69,1.74,1.2,2.43,.86,.93-.46,1.86-.92,2.78-1.4,.63-.33,.9-.18,.8,.54-.14,1.07-.29,2.14-.44,3.29Zm35.25-129.15c-.89,.02-1.73-.08-2.01,.98-.89,3.31-1.8,6.62-2.7,9.92-.12,.42-.12,.79,.41,.95,.77,.24,1.79-.27,1.91-1.08,.19-1.3,.73-1.77,2.15-1.86,1.65-.1,2.87-.19,3.41,1.8,.27,.99,1.42,.61,2.1,.41,.79-.23,.22-.87,.05-1.29-1.2-2.91-2.46-5.8-3.64-8.73-.35-.88-.8-1.34-1.68-1.11Zm32.92,17.41c-.04,1,.77,1.85,1.66,1.87,.89,.02,.66-.78,.73-1.24,.49-3.19,.91-6.39,1.38-9.58,.12-.79-.25-1.21-.92-1.44-.69-.24-1.29-1.07-2.14-.25-2.49,2.41-5.01,4.8-7.51,7.2-.23,.22-.48,.44-.24,.82,.43,.65,1.79,.88,2.28,.25,.9-1.16,1.75-1.24,2.99-.46,1.18,.75,2.78,1.06,1.78,2.82Zm-49.2,120.56c-.06,.72,.13,1.03,.6,1.14,1.75,.4,3.5,.81,5.25,1.2,.74,.17,.86-.41,.99-.91,.13-.5-.02-.85-.59-.96-.9-.17-1.8-.36-2.69-.57-.38-.09-.85-.16-.79-.71,.09-.83,.08-1.78,.6-2.39,.39-.46,1.18,.06,1.79,.16,.35,.06,.72,.1,1.06,.21,.63,.21,.87-.1,1.01-.65,.15-.58,.18-1.02-.57-1.16-.71-.13-1.4-.34-2.1-.47-.66-.12-.89-.43-.64-1.09,.11-.29,.12-.63,.17-.94,.1-.62,.34-.91,1.05-.68,.83,.26,1.72,.37,2.56,.6,.59,.16,.98,.15,1.16-.57,.17-.71,.09-1.14-.71-1.31-1.56-.33-3.12-.68-4.67-1.08-.82-.21-1.19,.06-1.35,.86-.39,1.88-.8,3.75-1.22,5.61-.3,1.32-.63,2.64-.89,3.7Zm35.96-5.08c-.28,.13-.51-.12-.64-.5-.13-.38-.19-.78-.34-1.15-.28-.67-.1-1.01,.63-1.17,.9-.19,1.77-.51,2.66-.72,.76-.18,.66-.68,.51-1.21-.14-.52-.37-.85-1.02-.65-1.6,.49-3.22,.94-4.84,1.38-.67,.18-.92,.57-.74,1.24,.87,3.12,1.73,6.23,2.6,9.35,.17,.6,.5,.86,1.15,.67,1.65-.47,3.31-.91,4.96-1.37,.79-.21,.66-.78,.52-1.34-.16-.6-.55-.7-1.11-.52-.87,.28-1.76,.52-2.64,.77-.39,.11-.72,.22-.98-.31-.93-1.87-.66-2.53,1.33-3.08,.27-.07,.54-.16,.81-.23,.6-.17,.85-.47,.65-1.15-.19-.62-.5-.87-1.13-.69-.73,.21-1.46,.42-2.37,.69Zm35.69-16.47c-.49-.42-.91-.85-1.4-1.18-.84-.58-1.02-1.13-.17-1.87,.42-.36,.73-.85,1.1-1.26,.41-.45,.36-.85-.09-1.23-.45-.39-.89-.54-1.35,0-.29,.33-.56,.68-.85,1-1.16,1.29-1.14,1.26-2.41,.12-.56-.5-.69-.86-.11-1.43,.57-.56,1-1.24,1.55-1.82,.47-.5,.57-.89,0-1.4-.55-.49-.95-.42-1.4,.12-1,1.19-1.99,2.4-3.06,3.53-.63,.67-.54,1.12,.1,1.67,2.4,2.05,4.79,4.11,7.17,6.18,.52,.45,.98,.49,1.44-.05,1.12-1.3,2.24-2.61,3.37-3.9,.5-.57,.13-.92-.27-1.3-.44-.41-.81-.42-1.21,.07-.61,.74-1.25,1.45-1.89,2.17-.15,.17-.31,.34-.54,.59Zm-91.92-2.49c-.07-.1-.14-.24-.24-.35-1.27-1.27-2.53-2.55-3.81-3.81-.48-.47-.92-.27-1.34,.16-2.25,2.27-4.51,4.52-6.78,6.77-.5,.49-.54,.9-.02,1.42,1.19,1.18,2.36,2.39,3.51,3.6,.48,.5,.87,.41,1.32-.02,.5-.47,.59-.88,.03-1.39-.71-.64-1.35-1.36-2.04-2.03-.35-.33-.41-.56-.04-.98,1.71-1.95,1.69-1.96,3.52-.12,.11,.11,.24,.22,.33,.34,.44,.57,.85,.58,1.38,.05,.54-.54,.43-.93-.08-1.39-.53-.48-1-1.03-1.54-1.51-.39-.36-.39-.64,0-.98,.3-.26,.59-.54,.85-.85,.45-.54,.83-.46,1.28,.02,.62,.67,1.29,1.31,1.94,1.96,.28,.28,.58,.43,.95,.18,.38-.25,.67-.57,.78-1.08Zm98.3-72.92c0,.06,0,.46,0,.86-.02,.69-.2,1.3-.96,1.48-.79,.19-1.29-.26-1.66-.89-.41-.71-.63-1.47-.57-2.29,.08-1.07-.42-1.03-1.16-.64-.52,.27-.77,.65-.74,1.24,.06,1.24,.5,2.34,1.23,3.32,1.05,1.42,2.48,1.94,3.97,1.48,1.57-.49,2.34-1.59,2.38-3.47,.02-.8-.03-1.6,0-2.4,.02-.56,.29-1.01,.88-1.14,.64-.14,1.08,.18,1.38,.71,.34,.61,.48,1.27,.46,1.96-.03,.84,.43,.82,1.01,.56,.67-.29,.97-.8,.84-1.54-.23-1.3-.79-2.44-1.79-3.31-1.67-1.46-4.37-.67-5.09,1.46-.25,.74-.22,1.5-.18,2.6Zm-15.61,83.52c-1.94-.14-2.98-1.48-3.82-2.94-1.24-2.15-.31-4.07,2.1-4.6,.37-.08,.93,.03,1.03-.42,.11-.5-.36-.85-.71-1.17-.56-.51-1.2-.31-1.81-.09-2.91,1.05-4.31,4.03-3.18,6.89,.71,1.79,1.91,3.23,3.61,4.18,2.52,1.41,6.45-.24,7.22-3.02,.06-.22,.1-.49,.04-.7-.15-.56-.47-1.13-1.02-1.22-.58-.1-.5,.6-.68,.95-.59,1.18-1.44,1.98-2.79,2.14ZM93.29,106.99c.05-2.45-2.31-4.17-4.48-3.4-.56,.2-1.07,.54-1.61,.78-.87,.39-1.78,1.24-2.67,.14-.55-.68,.08-1.74,1.39-2.56,.29-.18,.79-.21,.78-.65,0-.51-.54-.65-.89-.88-.42-.29-.83-.1-1.23,.15-.83,.53-1.44,1.26-1.89,2.12-.73,1.39-.63,2.67,.27,3.68,1.04,1.18,2.29,1.51,3.79,.93,.82-.32,1.58-.76,2.38-1.12,.64-.29,1.25-.32,1.72,.31,.46,.61,.31,1.24-.08,1.78-.49,.69-1.11,1.26-1.91,1.6-.78,.33-.73,.73-.09,1.19,.5,.36,1.04,.47,1.57,.16,1.7-.98,2.7-2.44,2.95-4.24Zm20.68,101.06c1.18,.02,2.07-.58,1.93-1.43-.17-1-1.04-.4-1.56-.45-2.14-.19-3.32-1.71-2.87-3.8,.16-.76,.48-1.44,.86-2.1,1.4-2.47,3.59-2.65,5.4-.46,.22,.26,.31,.77,.73,.7,.43-.07,.5-.57,.67-.93,.26-.54,.14-1.01-.23-1.44-1.32-1.54-3.02-2.31-5-1.94-2.96,.54-4.25,2.81-4.92,5.44-.89,3.46,1.43,6.35,5,6.41Zm5.52-131.6c-.17-.34,.21-.9-.4-1.1-.7-.24-1.94,.64-1.99,1.43-.08,1.11-.13,2.23-.2,3.35-.01,.23,.09,.53-.15,.66-.34,.18-.49-.18-.67-.35-.67-.63-1.4-1.22-1.95-1.95-.76-.99-1.55-.86-2.5-.38-.67,.34-.71,.69-.18,1.17,.59,.54,1.17,1.1,1.79,1.59,2.12,1.68,4.01,3.52,4.66,6.29,.12,.5,.43,.67,1,.51,1.29-.38,1.43-.67,.99-1.94-.48-1.41-1.27-2.69-.97-4.36,.29-1.6,.3-3.26,.57-4.91Zm80.44,52.39c.05,1.27,.46,1.6,1.75,1.36,.74-.14,1.5-.25,2.22-.48,.7-.22,1.02-.11,1.09,.69,.06,.67,.29,1.32,.41,1.99,.11,.6,.43,.79,1.02,.68,1.49-.28,.83-1.28,.66-2.04-.44-1.91-.47-1.9,1.44-2.28,.12-.02,.23-.06,.35-.1,.53-.16,.8,0,.89,.59,.13,.83,.36,1.63,.53,2.45,.15,.7,.59,.75,1.17,.57,.54-.16,.93-.33,.74-1.07-.34-1.35-.61-2.72-.85-4.09-.17-.95-.65-1.29-1.58-1.09-3.04,.65-6.08,1.29-9.12,1.92-.53,.11-.77,.38-.71,.91Zm-99.85-28.92c.02-.47-.29-.69-.54-.95-1.41-1.47-2.82-2.94-4.23-4.41-1.47-1.53-1.48-1.55,0-3.03,.5-.5,.75-.86,.11-1.46-.56-.53-.93-.56-1.48,0-1.54,1.56-3.13,3.09-4.72,4.6-.49,.47-.78,.82-.16,1.46,.61,.62,1.05,.56,1.56-.06,.25-.3,.6-.54,.85-.84,.46-.55,.77-.44,1.23,.05,1.71,1.85,3.47,3.64,5.21,5.46,.29,.3,.56,.65,1.01,.4,.53-.29,.98-.68,1.16-1.24Zm36.58,113.66c.46,0,.98-.03,1.5,0,.78,.06,.94-.38,.98-1.03,.03-.66-.21-.95-.89-.94-.68,0-1.35-.14-2.03-.13-.83,.02-1-.37-.94-1.12,.18-2.51,.29-5.02,.47-7.53,.05-.7-.02-1.11-.86-1.24-1.17-.18-1.57,.3-1.62,1.39-.16,3.03-.34,6.06-.55,9.09-.06,.87,.27,1.24,1.15,1.27,.92,.03,1.83,.15,2.81,.23Zm8.6,0c1.68-.2,3.1-.38,4.53-.55,.63-.07,.92-.4,.82-1.05-.11-.66-.34-1.14-1.16-1-.67,.11-1.35,.13-2.01,.26-.79,.15-1.04-.15-1.11-.92-.25-2.5-.59-4.98-.84-7.48-.09-.84-.47-1.1-1.26-.99-.77,.11-1.35,.27-1.21,1.31,.42,3.08,.78,6.16,1.12,9.25,.1,.9,.46,1.33,1.13,1.17Zm-63.1-54.87c-.28-.52,.09-1.68-1.16-1.45-3.22,.58-6.42,1.24-9.63,1.82-.98,.18-.66,.79-.6,1.36,.07,.61,.19,1.14,1,.99,3.25-.6,6.5-1.21,9.76-1.82,.45-.08,.73-.31,.64-.9Z"/><path class="cls-1" d="M140.99,91.27c27.92-.06,50.98,22.96,50.66,51.41-.32,27.59-22.88,50.21-50.82,50.18-27.71-.03-50.69-22.43-50.72-50.76-.03-28.31,23-50.98,50.88-50.83Zm49.73,50.79c0-27.54-22.32-49.91-49.84-49.9-27.41,.01-49.85,22.1-49.86,49.89,0,27.66,22.26,49.81,49.73,49.88,27.63,.07,49.97-22.27,49.97-49.87Z"/><path class="cls-3" d="M142.49,25.13c.67,5.82,1.58,11.45,2.86,17.02,1.43,6.23,3.25,12.35,5.53,18.33,.46,1.2,.38,1.27-.9,1.12-5.13-.61-10.28-.67-15.43-.25-.16,.01-.32,0-.48,.03-.98,.17-1.19-.11-.77-1.06,1.58-3.63,2.92-7.35,4.11-11.12,2.34-7.45,3.97-15.05,4.69-22.83,.04-.39,0-.8,.4-1.24Z"/><path class="cls-3" d="M149,222.75c-4.62,10.56-7.81,21.35-9.27,32.94-.57-1.36-.57-2.54-.74-3.67-1.49-9.54-3.9-18.84-7.25-27.89-.11-.3-.21-.61-.33-.9-.27-.63-.05-.78,.58-.7,4.25,.54,8.53,.5,12.8,.43,1.35-.02,2.69-.37,4.22-.21Z"/><path class="cls-3" d="M253.46,143.31c-2.57,.45-5.14,.88-7.71,1.36-7.99,1.49-15.77,3.72-23.38,6.56-1.17,.44-1.09,.44-.98-.83,.4-4.5,.59-9.01,.22-13.52-.06-.76-.04-1.52-.13-2.27-.11-.91,.22-.9,.92-.59,4.78,2.14,9.68,3.96,14.7,5.45,4.98,1.48,10.02,2.68,15.17,3.4,.41,.06,.81,.19,1.21,.28,0,.06-.02,.12-.03,.17Z"/><path class="cls-3" d="M60.1,150.11c-5.1-2.19-10.31-4.15-15.67-5.71-5.35-1.55-10.8-2.68-16.3-3.58,8.29-1.1,16.44-2.76,24.4-5.24,2.36-.74,4.69-1.56,7.02-2.37,.52-.18,.95-.41,.85,.47-.58,5.18-.56,10.36-.15,15.54,.02,.27,.09,.56-.16,.88Z"/><path class="cls-1" d="M153.81,76.98c-.86,1.87-1.77,3.73-2.56,5.63-.4,.96-.96,1.29-1.94,1.06-.97-.23-1.74-.46-1.76-1.8-.05-2.95-.32-5.9-.44-8.85-.02-.51-.47-1.39,.66-1.44,1.21-.06,1.67,.36,1.71,1.55,.07,2.28,.13,4.55,.21,6.83,0,.18-.06,.39,.29,.64,1.02-2.21,2.07-4.38,3.01-6.59,.4-.93,.87-1.31,1.9-1.05,.77,.19,1.1,.48,1.15,1.34,.14,2.53,.36,5.06,.67,7.66,.63-1.4,1.26-2.79,1.89-4.19,.46-1.02,.9-2.05,1.37-3.06,.45-.97,1.21-.52,1.86-.34,.86,.25,.39,.8,.19,1.23-1.37,2.84-2.8,5.66-4.1,8.53-.55,1.22-1.41,.9-2.3,.76-.86-.13-1.28-.52-1.31-1.5-.07-2.11-.29-4.22-.5-6.42Z"/><path class="cls-1" d="M166.26,200.2c.86,1.59,1.7,3.16,2.54,4.72,.25,.46,.47,.93,.76,1.36,.53,.79,.18,1.21-.54,1.59-.72,.39-1.06,.12-1.41-.53-1.39-2.61-2.82-5.2-4.21-7.81-.3-.57-.93-1.23-.14-1.8,.85-.61,1.75-1.41,2.93-.65,1.88,1.22,3.74,2.46,5.61,3.69,.2,.13,.35,.34,.69,.29,.14-.57-.32-.93-.55-1.35-.76-1.45-1.54-2.89-2.35-4.32-.43-.76-.14-1.16,.55-1.51,.69-.36,1.06-.18,1.42,.49,1.36,2.58,2.79,5.12,4.16,7.7,.33,.61,1.08,1.29,.17,1.99-.84,.64-1.71,1.16-2.82,.4-1.94-1.34-3.92-2.62-5.89-3.91-.24-.16-.41-.51-.92-.35Z"/><path class="cls-1" d="M76.64,145.12c-2.03,0-4.05-.03-6.08,.01-.78,.01-1.19-.18-1.19-1.05,0-.85,.36-1.09,1.16-1.09,2.87-.02,5.75-.1,8.62-.14,.66,0,1.5-.18,1.65,.74,.16,.98,.29,2.02-.85,2.63-2.14,1.15-4.28,2.32-6.42,3.48-.17,.09-.38,.12-.46,.5,1.46,0,2.9,0,4.35,0,.76,0,1.52,.03,2.28-.02,.83-.06,1.24,.15,1.24,1.1,0,1-.5,1.08-1.28,1.07-2.84-.01-5.67,.03-8.51,.03-.65,0-1.53,.21-1.65-.74-.13-.99-.4-2.11,.8-2.77,1.89-1.04,3.78-2.08,5.66-3.12,.24-.13,.47-.27,.7-.4-.01-.08-.02-.15-.04-.23Z"/><path class="cls-1" d="M207.73,137.99c4.84-.11,6.84,3.32,5.76,7.65-.29,1.17-1.07,2.07-2.2,2.54-2.12,.87-4.29,.91-6.41,.07-2.08-.82-3.23-3.07-2.95-5.49,.39-3.35,2.1-4.75,5.8-4.76Zm.15,8.42c.51-.07,1.03-.11,1.53-.21,1.71-.37,2.5-1.32,2.42-2.89-.07-1.49-.96-2.38-2.55-2.71-1.01-.21-1.99-.09-2.97,.03-1.37,.18-2.22,.96-2.35,2.15-.18,1.66,.42,2.79,1.79,3.27,.68,.24,1.39,.37,2.13,.36Z"/><path class="cls-1" d="M191.67,106.95c-1.48-.09-2.49-.49-3.35-1.29-1.1-1.01-1.97-2.2-2.87-3.37-.46-.61-.39-1.05,.2-1.51,2.47-1.9,4.93-3.82,7.38-5.73,.44-.34,.88-.45,1.26,.03,1.1,1.41,2.35,2.71,3.04,4.42,.53,1.33,.45,2.58-.27,3.79-1.29,2.17-3.2,3.39-5.39,3.65Zm3.7-6.4c.08-1.03-.61-1.84-1.22-2.67-.29-.4-.6-.25-.92,0-1.63,1.27-3.27,2.54-4.91,3.8-.36,.28-.51,.52-.23,.99,.84,1.39,2.29,2.19,3.56,1.88,1.95-.48,3.7-2.31,3.72-3.99Z"/><path class="cls-1" d="M82.09,132.54c.03,1.54-.46,2.99-.75,4.47-.13,.67-.58,.78-1.17,.65-3-.63-6-1.27-9.01-1.89-.87-.18-1.23-.6-.96-1.52,.26-.92,.42-1.86,.64-2.8,.71-3.06,2.69-4.51,5.82-4.25,3.39,.27,5.45,2.3,5.44,5.34Zm-1.92,.54c.05-1.97-1.25-3.11-3.93-3.46-1.88-.24-3.17,.74-3.7,2.74-.23,.85-.1,1.32,.87,1.49,1.64,.28,3.27,.68,4.9,1,1.65,.33,1.68,.3,1.83-1.41,.01-.12,.01-.24,.02-.36Z"/><path class="cls-1" d="M205.98,160.07c-1.24,.95-2.74,1.06-4.17,1.37-.46,.1-1.25,.6-1.32-.33-.06-.76-.16-1.76,.98-2.03,1.01-.24,2.02-.45,3.03-.68,.44-.1,.83-.28,1.11-.65,.6-.81,.37-1.39-.61-1.56-.86-.15-1.72-.36-2.59-.47-.85-.11-.91-.62-.78-1.29,.13-.66,.3-1.25,1.21-1.07,3.09,.59,6.19,1.16,9.29,1.74,.64,.12,1.01,.47,.87,1.17-.25,1.25-.44,2.52-.78,3.75-.44,1.59-1.5,2.51-2.8,2.6-1.37,.09-2.48-.67-3.22-2.21-.05-.1-.13-.19-.23-.33Zm1.56-1.92c-.03,1.19,.57,1.87,1.59,1.9,1,.03,1.95-1.01,1.68-2.26-.27-1.2-1.62-.78-2.48-.92-1.03-.16-.5,.92-.79,1.28Z"/><path class="cls-1" d="M105.31,82.51c1.95,.03,3.41,2.12,2.71,3.99-.25,.67-.37,.96,.52,1.21,1.4,.39,2.46,1.46,3.66,2.25,.26,.17,.37,.39,.18,.71-.55,.92-1.74,1.15-2.67,.5-.75-.52-1.52-1.03-2.29-1.53-.34-.22-.7-.39-1.13-.34-1.08,.13-1.29,.55-.73,1.46,.48,.78,.97,1.56,1.49,2.32,.51,.74,.02,1.1-.51,1.43-.5,.3-.99,.72-1.5-.09-1.7-2.71-3.44-5.39-5.17-8.08-.23-.36-.46-.81-.05-1.07,1.66-1.08,3.13-2.53,5.23-2.76,.08,0,.16,0,.24,0Zm-.77,2.16c-.68,0-2.04,.82-2.05,1.24,0,.34,1.45,2.35,1.7,2.35,.6,0,1.86-1.35,1.86-2,0-.77-.78-1.58-1.52-1.58Z"/><path class="cls-1" d="M183.07,93.01c.27,1.86-.51,3.39-.95,5-.18,.65-.55,.7-1.07,.31-.77-.59-1.37-1.17-.84-2.29,.35-.75,.52-1.59,.74-2.4,.15-.55,.15-1.11-.22-1.6-.43-.58-.83-.82-1.37-.07-.56,.77-1.22,1.48-1.82,2.22-.56,.68-1.02,.34-1.51-.1-.47-.42-.88-.77-.28-1.47,2.05-2.4,4.06-4.83,6.07-7.26,.43-.53,.85-.68,1.41-.2,1.02,.89,2.11,1.72,3.05,2.68,1.1,1.12,1.28,2.52,.66,3.62-.8,1.41-2.08,1.96-3.85,1.56Zm-.02-1.81c.87,.1,1.8-.67,1.88-1.46,.06-.56-1.19-2.13-1.71-2.15-.23-.01-2.05,1.91-1.96,2.16,.31,.87,1.1,1.18,1.79,1.45Z"/><path class="cls-1" d="M82.51,123.12c-.66,.04-1.28-.15-1.86-.4-2.05-.9-4.06-1.87-6.12-2.76-.83-.36-.5-.85-.27-1.35,.26-.58,.44-1.22,1.37-.78,1.95,.93,3.91,1.82,5.9,2.65,1.8,.75,3.45-.56,3.22-2.49-.12-1.01-.87-1.48-1.69-1.86-1.78-.82-3.56-1.63-5.35-2.42-.69-.3-1.06-.62-.65-1.44,.37-.75,.72-1.17,1.64-.72,1.94,.94,3.94,1.76,5.88,2.7,1.62,.79,2.54,2.14,2.28,3.97-.29,2.04-1.06,3.87-3.17,4.73-.15,.06-.3,.1-.46,.12-.24,.03-.48,.03-.72,.04Z"/><path class="cls-1" d="M101.52,200.95c.16-1.16,.3-2.22,.44-3.29,.1-.72-.16-.87-.8-.54-.92,.48-1.85,.94-2.78,1.4-.69,.34-2.16-.17-2.43-.86-.2-.51,.25-.61,.55-.76,1.39-.69,2.79-1.39,4.2-2.03,.69-.31,1.04-.72,1.09-1.52,.09-1.39,.32-2.77,.47-4.16,.09-.87,.47-1.02,1.19-.55,.79,.51,1.36,1.05,1.05,2.14-.21,.76-.2,1.58-.32,2.37-.13,.84,.19,.92,.84,.57,.74-.4,1.47-.81,2.22-1.17,.38-.18,.79-.51,1.24-.25,.51,.29,1.24,.52,1.32,1.12,.1,.7-.73,.71-1.18,.97-.55,.32-1.11,.7-1.71,.84-2.16,.53-2.78,2.02-2.78,4.04,0,.87-.17,1.74-.29,2.61-.13,1.03-.43,1.16-1.32,.57-.56-.37-1.22-.71-1.01-1.49Z"/><path class="cls-1" d="M136.77,71.8c.88-.23,1.33,.23,1.68,1.11,1.17,2.92,2.43,5.81,3.64,8.73,.17,.42,.74,1.06-.05,1.29-.68,.2-1.83,.58-2.1-.41-.54-1.99-1.76-1.9-3.41-1.8-1.42,.09-1.97,.56-2.15,1.86-.12,.81-1.14,1.32-1.91,1.08-.52-.16-.52-.53-.41-.95,.9-3.31,1.81-6.61,2.7-9.92,.28-1.06,1.12-.96,2.01-.98Zm-.26,2.41c-.42,1.52-.75,2.7-1.06,3.88-.09,.33-.3,.78,.28,.82,.71,.05,1.43,0,2.14-.07,.46-.05,.42-.41,.29-.73-.49-1.2-1-2.39-1.63-3.9Z"/><path class="cls-1" d="M169.69,89.21c1-1.76-.6-2.07-1.78-2.82-1.24-.79-2.09-.71-2.99,.46-.49,.63-1.85,.4-2.28-.25-.25-.38,.01-.6,.24-.82,2.5-2.4,5.02-4.79,7.51-7.2,.85-.82,1.45,0,2.14,.25,.67,.23,1.04,.65,.92,1.44-.47,3.19-.89,6.39-1.38,9.58-.07,.46,.16,1.26-.73,1.24-.89-.02-1.7-.87-1.66-1.87Zm1.33-8.15c-.1-.06-.19-.12-.29-.19-.57,.6-1.13,1.21-1.71,1.79-1.6,1.59-1.59,1.56,.45,2.53,.66,.31,.95,.21,1.05-.49,.17-1.22,.33-2.43,.5-3.65Z"/><path class="cls-1" d="M120.49,209.77c.26-1.07,.59-2.38,.89-3.7,.42-1.87,.84-3.74,1.22-5.61,.16-.8,.53-1.07,1.35-.86,1.55,.4,3.1,.75,4.67,1.08,.81,.17,.89,.6,.71,1.31-.18,.72-.57,.73-1.16,.57-.85-.23-1.73-.33-2.56-.6-.71-.23-.96,.06-1.05,.68-.05,.32-.06,.65-.17,.94-.25,.66-.02,.96,.64,1.09,.71,.13,1.4,.34,2.1,.47,.75,.14,.72,.58,.57,1.16-.14,.56-.38,.86-1.01,.65-.34-.11-.7-.15-1.06-.21-.61-.1-1.4-.62-1.79-.16-.52,.61-.51,1.56-.6,2.39-.06,.55,.41,.62,.79,.71,.89,.21,1.79,.4,2.69,.57,.57,.11,.72,.46,.59,.96-.13,.5-.25,1.08-.99,.91-1.75-.39-3.5-.8-5.25-1.2-.47-.11-.65-.42-.6-1.14Z"/><path class="cls-1" d="M156.45,204.69c.91-.26,1.64-.47,2.37-.69,.63-.18,.94,.07,1.13,.69,.21,.67-.05,.98-.65,1.15-.27,.07-.54,.16-.81,.23-1.99,.55-2.25,1.22-1.33,3.08,.26,.53,.6,.42,.98,.31,.88-.25,1.77-.49,2.64-.77,.56-.18,.95-.08,1.11,.52,.15,.56,.27,1.13-.52,1.34-1.66,.45-3.31,.89-4.96,1.37-.65,.19-.99-.07-1.15-.67-.87-3.12-1.73-6.23-2.6-9.35-.19-.67,.06-1.06,.74-1.24,1.62-.44,3.23-.89,4.84-1.38,.65-.2,.88,.13,1.02,.65,.14,.53,.24,1.02-.51,1.21-.89,.21-1.76,.53-2.66,.72-.73,.16-.9,.5-.63,1.17,.15,.37,.21,.77,.34,1.15,.13,.39,.36,.63,.64,.5Z"/><path class="cls-1" d="M192.14,188.22c.23-.24,.39-.41,.54-.59,.63-.72,1.27-1.43,1.89-2.17,.4-.48,.77-.47,1.21-.07,.4,.38,.77,.73,.27,1.3-1.13,1.29-2.25,2.6-3.37,3.9-.47,.54-.92,.5-1.44,.05-2.38-2.07-4.77-4.13-7.17-6.18-.64-.55-.73-1.01-.1-1.67,1.07-1.13,2.06-2.34,3.06-3.53,.45-.54,.85-.61,1.4-.12,.57,.51,.47,.9,0,1.4-.55,.58-.99,1.26-1.55,1.82-.58,.58-.45,.93,.11,1.43,1.27,1.14,1.24,1.17,2.41-.12,.29-.33,.57-.67,.85-1,.45-.53,.9-.38,1.35,0,.45,.39,.49,.78,.09,1.23-.37,.42-.68,.9-1.1,1.26-.86,.74-.67,1.29,.17,1.87,.48,.33,.9,.76,1.4,1.18Z"/><path class="cls-1" d="M100.22,185.73c-.12,.51-.41,.83-.78,1.08-.37,.25-.68,.1-.95-.18-.65-.65-1.31-1.29-1.94-1.96-.45-.48-.83-.56-1.28-.02-.26,.3-.55,.58-.85,.85-.38,.34-.39,.63,0,.98,.53,.48,1,1.03,1.54,1.51,.51,.46,.61,.85,.08,1.39-.53,.53-.93,.51-1.38-.05-.1-.13-.22-.23-.33-.34-1.83-1.84-1.81-1.83-3.52,.12-.37,.42-.3,.64,.04,.98,.69,.67,1.33,1.38,2.04,2.03,.56,.51,.47,.92-.03,1.39-.46,.43-.85,.52-1.32,.02-1.16-1.21-2.32-2.42-3.51-3.6-.52-.51-.48-.92,.02-1.42,2.27-2.25,4.53-4.51,6.78-6.77,.43-.43,.86-.63,1.34-.16,1.28,1.26,2.55,2.54,3.81,3.81,.11,.11,.18,.25,.24,.35Z"/><path class="cls-1" d="M198.52,112.82c-.04-1.1-.07-1.86,.18-2.6,.72-2.13,3.42-2.92,5.09-1.46,1,.87,1.56,2.01,1.79,3.31,.13,.74-.16,1.24-.84,1.54-.58,.25-1.03,.28-1.01-.56,.02-.69-.12-1.35-.46-1.96-.3-.53-.74-.86-1.38-.71-.6,.13-.86,.58-.88,1.14-.03,.8,.02,1.6,0,2.4-.04,1.88-.81,2.98-2.38,3.47-1.5,.46-2.93-.06-3.97-1.48-.73-.98-1.17-2.08-1.23-3.32-.03-.59,.22-.97,.74-1.24,.74-.39,1.23-.43,1.16,.64-.06,.82,.16,1.59,.57,2.29,.36,.63,.86,1.09,1.66,.89,.75-.18,.94-.8,.96-1.48,.01-.4,0-.8,0-.86Z"/><path class="cls-1" d="M182.92,196.34c1.35-.16,2.2-.96,2.79-2.14,.18-.36,.09-1.06,.68-.95,.56,.1,.88,.67,1.02,1.22,.06,.22,.02,.48-.04,.7-.77,2.78-4.7,4.43-7.22,3.02-1.7-.95-2.9-2.39-3.61-4.18-1.13-2.86,.28-5.84,3.18-6.89,.6-.22,1.24-.42,1.81,.09,.35,.32,.82,.66,.71,1.17-.1,.45-.66,.34-1.03,.42-2.42,.53-3.34,2.45-2.1,4.6,.84,1.46,1.88,2.8,3.82,2.94Z"/><path class="cls-1" d="M93.29,106.99c-.25,1.79-1.25,3.26-2.95,4.24-.53,.31-1.07,.2-1.57-.16-.64-.47-.68-.86,.09-1.19,.8-.34,1.42-.91,1.91-1.6,.38-.54,.54-1.18,.08-1.78-.47-.63-1.09-.6-1.72-.31-.8,.36-1.57,.8-2.38,1.12-1.5,.58-2.75,.25-3.79-.93-.89-1.01-.99-2.29-.27-3.68,.45-.86,1.06-1.59,1.89-2.12,.39-.25,.8-.44,1.23-.15,.35,.24,.88,.37,.89,.88,0,.43-.49,.46-.78,.65-1.3,.82-1.93,1.88-1.39,2.56,.89,1.11,1.8,.25,2.67-.14,.55-.24,1.05-.58,1.61-.78,2.17-.77,4.53,.95,4.48,3.4Z"/><path class="cls-1" d="M113.97,208.05c-3.58-.06-5.89-2.95-5-6.41,.67-2.63,1.96-4.9,4.92-5.44,1.98-.36,3.68,.4,5,1.94,.37,.43,.49,.91,.23,1.44-.17,.35-.23,.85-.67,.93-.42,.07-.52-.43-.73-.7-1.81-2.19-3.99-2.01-5.4,.46-.38,.66-.7,1.34-.86,2.1-.44,2.09,.74,3.61,2.87,3.8,.52,.05,1.39-.55,1.56,.45,.14,.85-.75,1.45-1.93,1.43Z"/><path class="cls-1" d="M119.49,76.45c-.27,1.66-.28,3.32-.57,4.91-.3,1.67,.49,2.95,.97,4.36,.44,1.27,.29,1.56-.99,1.94-.57,.17-.88,0-1-.51-.64-2.78-2.53-4.61-4.66-6.29-.63-.49-1.2-1.06-1.79-1.59-.53-.48-.48-.83,.18-1.17,.95-.48,1.74-.61,2.5,.38,.55,.72,1.28,1.31,1.95,1.95,.18,.17,.33,.53,.67,.35,.24-.13,.13-.43,.15-.66,.07-1.12,.12-2.23,.2-3.35,.06-.78,1.29-1.66,1.99-1.43,.61,.21,.23,.76,.4,1.1Z"/><path class="cls-1" d="M199.93,128.84c-.06-.53,.18-.8,.71-.91,3.04-.63,6.08-1.27,9.12-1.92,.93-.2,1.42,.14,1.58,1.09,.24,1.37,.51,2.74,.85,4.09,.19,.74-.2,.91-.74,1.07-.58,.18-1.02,.13-1.17-.57-.17-.82-.4-1.63-.53-2.45-.09-.59-.36-.75-.89-.59-.11,.03-.23,.07-.35,.1-1.91,.38-1.88,.38-1.44,2.28,.18,.76,.83,1.76-.66,2.04-.59,.11-.91-.08-1.02-.68-.12-.67-.36-1.32-.41-1.99-.07-.8-.39-.91-1.09-.69-.72,.23-1.47,.34-2.22,.48-1.28,.24-1.7-.1-1.75-1.36Z"/><path class="cls-1" d="M100.08,99.92c-.17,.56-.63,.95-1.16,1.24-.45,.24-.72-.1-1.01-.4-1.73-1.82-3.5-3.62-5.21-5.46-.46-.5-.77-.61-1.23-.05-.25,.31-.59,.54-.85,.84-.51,.61-.95,.68-1.56,.06-.62-.63-.33-.99,.16-1.46,1.59-1.52,3.17-3.04,4.72-4.6,.55-.56,.92-.54,1.48,0,.63,.6,.38,.96-.11,1.46-1.49,1.48-1.47,1.5,0,3.03,1.41,1.47,2.82,2.94,4.23,4.41,.24,.26,.55,.48,.54,.95Z"/><path class="cls-1" d="M136.66,213.58c-.98-.09-1.89-.21-2.81-.23-.87-.02-1.2-.4-1.15-1.27,.2-3.03,.39-6.06,.55-9.09,.06-1.09,.45-1.57,1.62-1.39,.84,.13,.91,.54,.86,1.24-.18,2.51-.29,5.02-.47,7.53-.05,.75,.12,1.13,.94,1.12,.68-.01,1.35,.13,2.03,.13,.68,0,.92,.28,.89,.94-.03,.65-.2,1.09-.98,1.03-.52-.04-1.04,0-1.5,0Z"/><path class="cls-1" d="M145.26,213.58c-.68,.16-1.03-.26-1.13-1.17-.34-3.09-.7-6.17-1.12-9.25-.14-1.05,.43-1.2,1.21-1.31,.79-.11,1.17,.15,1.26,.99,.25,2.5,.6,4.98,.84,7.48,.08,.77,.32,1.08,1.11,.92,.66-.13,1.35-.14,2.01-.26,.82-.14,1.05,.34,1.16,1,.1,.65-.18,.98-.82,1.05-1.42,.17-2.85,.34-4.53,.55Z"/><path class="cls-1" d="M82.17,158.71c.09,.58-.19,.81-.64,.9-3.25,.61-6.5,1.22-9.76,1.82-.81,.15-.93-.39-1-.99-.06-.57-.38-1.18,.6-1.36,3.22-.58,6.42-1.24,9.63-1.82,1.26-.23,.89,.94,1.16,1.45Z"/><path class="cls-2" d="M190.73,142.06c0,27.6-22.34,49.94-49.97,49.87-27.47-.07-49.74-22.22-49.73-49.88,0-27.79,22.45-49.87,49.86-49.89,27.52-.01,49.84,22.35,49.84,49.9Zm-1.53,.03c.21-25.99-20.74-48.42-48.25-48.43-27.32,0-48.11,21.85-48.41,47.83-.31,26.57,20.86,48.98,48.47,48.97,26.84-.01,48.33-21.87,48.19-48.37Z"/><path class="cls-2" d="M207.88,146.4c-.74,0-1.45-.13-2.13-.36-1.37-.47-1.97-1.61-1.79-3.27,.13-1.19,.98-1.98,2.35-2.15,.99-.13,1.96-.24,2.97-.03,1.6,.33,2.48,1.22,2.55,2.71,.07,1.57-.72,2.53-2.42,2.89-.5,.11-1.02,.14-1.53,.21Z"/><path class="cls-2" d="M195.37,100.55c-.02,1.68-1.77,3.51-3.72,3.99-1.27,.31-2.73-.48-3.56-1.88-.28-.47-.13-.71,.23-.99,1.64-1.26,3.28-2.53,4.91-3.8,.32-.25,.63-.4,.92,0,.61,.83,1.3,1.64,1.22,2.67Z"/><path class="cls-2" d="M80.16,133.08c0,.12-.01,.24-.02,.36-.15,1.71-.19,1.74-1.83,1.41-1.64-.33-3.26-.72-4.9-1-.98-.17-1.1-.64-.87-1.49,.53-2,1.81-2.98,3.7-2.74,2.68,.35,3.98,1.49,3.93,3.46Z"/><path class="cls-2" d="M207.55,158.15c.29-.37-.24-1.45,.79-1.28,.86,.14,2.22-.28,2.48,.92,.28,1.25-.68,2.29-1.68,2.26-1.02-.03-1.62-.71-1.59-1.9Z"/><path class="cls-2" d="M104.54,84.67c.74,0,1.52,.81,1.52,1.58,0,.65-1.26,2-1.86,2-.26,0-1.71-2-1.7-2.35,.01-.42,1.37-1.24,2.05-1.24Z"/><path class="cls-2" d="M183.05,91.19c-.69-.27-1.48-.58-1.79-1.45-.09-.25,1.73-2.17,1.96-2.16,.52,.02,1.77,1.59,1.71,2.15-.09,.79-1.01,1.56-1.88,1.46Z"/><path class="cls-2" d="M136.51,74.21c.63,1.51,1.14,2.7,1.63,3.9,.13,.32,.17,.68-.29,.73-.71,.07-1.43,.11-2.14,.07-.57-.04-.36-.49-.28-.82,.32-1.18,.64-2.36,1.06-3.88Z"/><path class="cls-2" d="M171.02,81.07c-.17,1.22-.33,2.43-.5,3.65-.1,.7-.39,.8-1.05,.49-2.04-.97-2.05-.94-.45-2.53,.59-.58,1.14-1.19,1.71-1.79,.1,.06,.19,.12,.29,.19Z"/><path class="cls-3" d="M189.2,142.09c.14,26.5-21.35,48.36-48.19,48.37-27.61,.01-48.78-22.41-48.47-48.97,.3-25.98,21.09-47.84,48.41-47.83,27.51,0,48.45,22.43,48.25,48.43Zm-49.3,9.72c0-1.48,.13-2.97-.03-4.43-.34-3.22-1.35-6.16-4.55-7.65-5.32-2.48-11.01,.45-11.92,6.22-.61,3.88-.59,7.82,0,11.71,.42,2.73,1.69,5.08,4.39,6.33,4.92,2.26,10.11-.1,11.64-5.26,.67-2.27,.48-4.59,.46-6.91Zm-30.21,8.53c.24-.71,.69-1.02,1.03-1.39,2.26-2.43,4.71-4.68,6.64-7.4,.98-1.38,1.78-2.86,1.91-4.59,.36-4.53-1.72-7.11-6.29-7.89-5-.84-9.35,1.82-10.31,6.32q-.37,1.75,1.46,1.75c.32,0,.64,.02,.96,0,.75-.05,1.63,.28,2.21-.16,.37-.28,.29-1.1,.49-1.65,.63-1.77,2.19-2.62,4.11-2.28,1.53,.27,2.37,1.49,2.42,3.38,.05,1.75-.88,3.05-1.89,4.29-2.46,3-5.18,5.77-7.9,8.53-1.19,1.21-1.77,2.41-1.61,4.1,.08,.82,.26,1.07,1.09,1.06,4.44-.04,8.87-.02,13.31-.02,2.88,0,2.85,0,2.89-2.85,.01-.92-.2-1.24-1.18-1.22-3.07,.07-6.14,.02-9.34,.02Zm40.11,0c.53-.6,.86-.99,1.2-1.36,2.29-2.45,4.76-4.74,6.73-7.48,1.45-2.03,2.18-4.25,1.85-6.76-.41-3.12-2.56-5.05-6.34-5.68-4.53-.75-8.66,1.47-9.98,5.36-.9,2.63-.83,2.73,1.86,2.72,.83,0,1.77,.16,2.47-.16,.39-.18,.4-1.2,.59-1.83,.02-.08,.07-.14,.1-.22,.73-1.52,2.25-2.23,4.01-1.88,1.4,.28,2.2,1.39,2.34,3.08,.15,1.84-.78,3.23-1.85,4.54-2.48,3.04-5.25,5.81-7.98,8.62-1.15,1.19-1.69,2.36-1.57,4,.06,.9,.29,1.12,1.17,1.12,4.4-.04,8.79-.02,13.19-.02,2.95,0,2.91,0,2.94-2.92,0-.89-.22-1.17-1.13-1.15-3.08,.06-6.15,.02-9.59,.02Zm25.78-8.56c0-3.75,0-7.51,0-11.26,0-1.44-.02-1.45-1.42-.94-2.29,.82-4.58,1.64-6.87,2.46-2.84,1.02-2.81,1.03-2.7,4.08,.03,.77,.28,.87,.93,.65,1.17-.39,2.36-.74,3.54-1.11q1.52-.47,1.52,1.07c0,5.51,.02,11.02-.02,16.54,0,.89,.22,1.21,1.13,1.13,.91-.08,1.84-.07,2.75,0,.89,.07,1.16-.21,1.15-1.12-.05-3.83-.02-7.67-.02-11.5Zm-63.28-25.71c0,1.8,0,3.59,0,5.39,0,.38-.12,.79,.47,.93,1.54,.37,2.1-.04,2.1-1.62,0-.56,.06-1.12-.01-1.67-.13-1.04,.33-1.33,1.3-1.24,.5,.05,.81,.2,1.03,.65,.36,.76,.77,1.49,1.15,2.24,.87,1.76,.87,1.74,2.8,1.65,.68-.03,.86-.15,.47-.82-.69-1.17-1.27-2.4-1.91-3.59-.22-.41-.44-.74,.11-1.1,1.65-1.07,1.97-2.69,1.46-4.42-.55-1.84-2.12-2.38-3.86-2.46-1.39-.07-2.79,0-4.19-.05-.76-.03-.95,.26-.93,.97,.05,1.72,.01,3.43,.01,5.15Zm11.1-.08h0c0,1.8,.01,3.6,0,5.4,0,.59,.05,1.01,.81,1.01,2.24-.02,4.48-.03,6.71,0,.89,.01,.77-.57,.8-1.13,.03-.61-.1-1-.84-.96-.92,.04-1.84,0-2.76,.01-2.28,0-2.26,0-2.16-2.32,.03-.66,.24-.93,.91-.91,1.04,.03,2.08-.05,3.12,.02,1.11,.07,.95-.64,.99-1.33,.04-.82-.39-.91-1.06-.84-.67,.07-1.36,.06-2.03,.06-1.96,0-1.97-.06-1.92-2.01,.02-.76,.33-.95,1.02-.93,1.32,.03,2.64,0,3.96,.01,.89,.01,.76-.59,.79-1.15,.03-.6-.06-.98-.82-.96-2.2,.04-4.4,.04-6.59,0-.8-.02-.92,.34-.9,1.01,.03,1.68,.01,3.36,.01,5.04Zm24.14,6.34c.22-.28,1.6,.71,1.09-.73-1.3-3.69-2.76-7.32-4.09-11-.28-.77-.8-.65-1.33-.64-.6,.02-1.25-.21-1.57,.67-1.32,3.64-2.69,7.26-4.04,10.89-.09,.24-.26,.52,.03,.77,.56,.47,2.51,.01,2.64-.7,.27-1.54,1.14-2.03,2.6-1.78,.31,.05,.65,.05,.96,0,1.16-.19,1.81,.29,1.99,1.44,.14,.91,.62,1.35,1.72,1.07Zm4.5-6.07c.05-1.07-.08-2.16,.5-3.16,.49-.84,1.21-1.23,2.18-1.2,.86,.03,1.72,.3,1.92,1.15,.27,1.21,1.02,1.18,1.94,1.17,.81,0,1.08-.19,.8-1.05-.64-2-2.12-3.2-4.32-3.38-2.12-.18-4.05,.86-4.95,2.69-.96,1.96-.91,4.04-.5,6.09,.45,2.24,2.19,3.76,4.28,3.91,2.77,.2,4.59-.76,5.34-2.87,.15-.42,.67-.96,0-1.37-.57-.36-2.16,.07-2.38,.57-.6,1.38-1.2,1.73-2.71,1.56-1.1-.12-1.82-.89-2-2.2-.09-.63-.08-1.27-.11-1.91Zm12.13,1c0,1.32,.08,2.64-.02,3.95-.09,1.15,.5,1.2,1.37,1.19,.81,0,1.34-.02,1.28-1.12-.1-1.99-.05-3.99-.02-5.99,.02-1.03-.42-2.28,.22-3.01,.58-.65,1.82-.22,2.76-.2,.86,.01,.85-.46,.85-1.07,0-.59,.06-1.08-.82-1.07-2.83,.04-5.67,.03-8.5,0-.67,0-.9,.2-.9,.88,0,.88,.22,1.37,1.23,1.24,.55-.07,1.12,.02,1.67-.02,.67-.04,.92,.23,.91,.9-.03,1.44,0,2.87-.01,4.31Zm-30.75-1.16c0,1.76,.06,3.52-.02,5.28-.04,.93,.35,1.1,1.12,1.01,.68-.08,1.56,.32,1.53-1-.06-3.52-.06-7.04,0-10.56,.02-1.1-.67-.89-1.27-.85-.58,.03-1.43-.39-1.38,.85,.07,1.76,.02,3.52,.02,5.28Z"/><path class="cls-2" d="M139.9,151.8c.02,2.31,.21,4.64-.46,6.91-1.53,5.16-6.72,7.52-11.64,5.26-2.71-1.24-3.97-3.59-4.39-6.33-.6-3.88-.62-7.83,0-11.71,.91-5.77,6.6-8.71,11.92-6.22,3.2,1.49,4.22,4.43,4.55,7.65,.15,1.46,.03,2.96,.03,4.43Zm-11.75-.15c0,1.68-.1,3.36,.03,5.03,.11,1.52,.46,3.07,2.08,3.78,2.22,.98,4.24-.5,4.6-3.29,.39-3.1,.18-6.22,.17-9.33,0-.71-.16-1.43-.35-2.12-.52-1.94-1.51-2.75-3.25-2.72-1.64,.03-2.58,.9-3.06,2.8-.49,1.93-.18,3.9-.21,5.84Z"/><path class="cls-2" d="M109.69,160.33c3.2,0,6.27,.04,9.34-.02,.99-.02,1.2,.31,1.18,1.22-.04,2.85,0,2.85-2.89,2.85-4.44,0-8.87-.02-13.31,.02-.84,0-1.02-.24-1.09-1.06-.15-1.69,.42-2.89,1.61-4.1,2.71-2.76,5.44-5.53,7.9-8.53,1.01-1.24,1.94-2.54,1.89-4.29-.06-1.89-.9-3.11-2.42-3.38-1.92-.34-3.48,.52-4.11,2.28-.2,.55-.12,1.38-.49,1.65-.59,.44-1.46,.11-2.21,.16-.32,.02-.64,0-.96,0q-1.83,0-1.46-1.75c.95-4.5,5.3-7.16,10.31-6.32,4.57,.77,6.65,3.36,6.29,7.89-.14,1.73-.93,3.21-1.91,4.59-1.93,2.72-4.39,4.97-6.64,7.4-.35,.37-.79,.67-1.03,1.39Z"/><path class="cls-2" d="M149.8,160.33c3.44,0,6.51,.04,9.59-.02,.91-.02,1.14,.26,1.13,1.15-.03,2.92,0,2.92-2.94,2.92-4.4,0-8.79-.02-13.19,.02-.88,0-1.1-.21-1.17-1.12-.12-1.64,.42-2.81,1.57-4,2.73-2.81,5.5-5.58,7.98-8.62,1.07-1.31,2-2.7,1.85-4.54-.14-1.69-.94-2.8-2.34-3.08-1.76-.35-3.28,.36-4.01,1.88-.03,.07-.08,.14-.1,.22-.19,.64-.2,1.65-.59,1.83-.7,.32-1.63,.16-2.47,.16-2.7,0-2.76-.08-1.86-2.72,1.32-3.9,5.45-6.11,9.98-5.36,3.78,.63,5.93,2.55,6.34,5.68,.33,2.51-.4,4.74-1.85,6.76-1.97,2.74-4.44,5.03-6.73,7.48-.34,.37-.66,.75-1.2,1.36Z"/><path class="cls-2" d="M175.58,151.77c0,3.83-.03,7.67,.02,11.5,.01,.92-.26,1.2-1.15,1.12-.91-.07-1.84-.08-2.75,0-.91,.08-1.13-.24-1.13-1.13,.04-5.51,.02-11.02,.02-16.54q0-1.55-1.52-1.07c-1.18,.37-2.37,.71-3.54,1.11-.66,.22-.91,.11-.93-.65-.11-3.05-.14-3.06,2.7-4.08,2.29-.83,4.58-1.64,6.87-2.46,1.4-.5,1.41-.5,1.42,.94,0,3.75,0,7.51,0,11.26Z"/><path class="cls-2" d="M112.3,126.06c0-1.72,.03-3.43-.01-5.15-.02-.71,.17-1.01,.93-.97,1.39,.06,2.8-.02,4.19,.05,1.73,.09,3.31,.62,3.86,2.46,.51,1.73,.19,3.34-1.46,4.42-.55,.36-.33,.7-.11,1.1,.64,1.2,1.22,2.43,1.91,3.59,.4,.68,.21,.79-.47,.82-1.93,.09-1.93,.11-2.8-1.65-.37-.75-.79-1.48-1.15-2.24-.22-.46-.53-.61-1.03-.65-.96-.09-1.43,.2-1.3,1.24,.07,.55,.01,1.12,.01,1.67,0,1.57-.56,1.99-2.1,1.62-.59-.14-.47-.55-.47-.93,0-1.8,0-3.59,0-5.39Zm2.46-2.31c.03,2.08-.33,2,1.5,2.01,1.95,0,2.57-.45,2.57-1.84,0-1.42-.77-1.86-2.79-1.99-1.69-.11-1.23,1-1.29,1.83Z"/><path class="cls-2" d="M123.4,125.98c0-1.68,.02-3.36-.01-5.04-.01-.67,.1-1.03,.9-1.01,2.2,.05,4.4,.04,6.59,0,.76-.01,.85,.36,.82,.96-.03,.56,.1,1.17-.79,1.15-1.32-.02-2.64,.02-3.96-.01-.69-.02-1,.17-1.02,.93-.05,1.95-.04,2,1.92,2.01,.68,0,1.36,.01,2.03-.06,.67-.07,1.1,.02,1.06,.84-.03,.68,.12,1.4-.99,1.33-1.03-.07-2.08,.01-3.12-.02-.68-.02-.89,.25-.91,.91-.1,2.33-.12,2.33,2.16,2.32,.92,0,1.84,.03,2.76-.01,.74-.04,.87,.35,.84,.96-.03,.56,.09,1.15-.8,1.13-2.24-.03-4.48-.02-6.71,0-.76,0-.81-.42-.81-1.01,.02-1.8,0-3.6,0-5.4h0Z"/><path class="cls-2" d="M147.53,132.32c-1.11,.29-1.58-.16-1.72-1.07-.18-1.15-.83-1.63-1.99-1.44-.31,.05-.65,.05-.96,0-1.46-.26-2.33,.23-2.6,1.78-.13,.71-2.08,1.17-2.64,.7-.29-.24-.12-.52-.03-.77,1.34-3.63,2.72-7.25,4.04-10.89,.32-.88,.97-.65,1.57-.67,.54-.02,1.06-.13,1.33,.64,1.34,3.68,2.79,7.31,4.09,11,.51,1.43-.87,.45-1.09,.73Zm-4.34-9.04c-.62,.84-.73,1.72-1.01,2.52-.74,2.12-.62,2.25,1.64,2.02,.04,0,.08,0,.12,0,.49,0,.64-.25,.5-.7-.4-1.24-.8-2.48-1.24-3.84Z"/><path class="cls-2" d="M152.03,126.25c.04,.64,.03,1.28,.11,1.91,.18,1.31,.91,2.08,2,2.2,1.51,.17,2.11-.18,2.71-1.56,.22-.5,1.81-.93,2.38-.57,.66,.41,.14,.96,0,1.37-.75,2.11-2.57,3.06-5.34,2.87-2.09-.15-3.84-1.67-4.28-3.91-.41-2.06-.47-4.13,.5-6.09,.9-1.83,2.83-2.87,4.95-2.69,2.21,.18,3.68,1.38,4.32,3.38,.28,.86,0,1.05-.8,1.05-.92,0-1.67,.03-1.94-1.17-.19-.85-1.05-1.12-1.92-1.15-.97-.03-1.69,.36-2.18,1.2-.58,.99-.46,2.08-.5,3.16Z"/><path class="cls-2" d="M164.17,127.25c0-1.44-.02-2.87,.01-4.31,.01-.67-.24-.94-.91-.9-.56,.04-1.13-.05-1.67,.02-1.01,.13-1.23-.36-1.23-1.24,0-.69,.23-.89,.9-.88,2.83,.03,5.67,.04,8.5,0,.88-.01,.82,.48,.82,1.07,0,.61,.01,1.08-.85,1.07-.94-.01-2.18-.45-2.76,.2-.64,.73-.2,1.99-.22,3.01-.03,2-.08,4,.02,5.99,.06,1.1-.47,1.12-1.28,1.12-.87,0-1.46-.04-1.37-1.19,.11-1.31,.02-2.63,.03-3.95Z"/><path class="cls-2" d="M133.42,126.09c0-1.76,.05-3.52-.02-5.28-.05-1.24,.8-.81,1.38-.85,.6-.04,1.28-.24,1.27,.85-.05,3.52-.05,7.04,0,10.56,.02,1.33-.85,.93-1.53,1-.77,.08-1.16-.08-1.12-1.01,.08-1.76,.02-3.52,.02-5.28Z"/><path class="cls-3" d="M128.15,151.65c.03-1.95-.27-3.91,.21-5.84,.48-1.9,1.43-2.77,3.06-2.8,1.73-.03,2.73,.77,3.25,2.72,.18,.69,.35,1.41,.35,2.12,.01,3.11,.23,6.22-.17,9.33-.35,2.79-2.37,4.26-4.6,3.29-1.62-.71-1.97-2.25-2.08-3.78-.13-1.67-.03-3.35-.03-5.03Z"/><path class="cls-1" d="M114.76,123.74c.06-.82-.4-1.94,1.29-1.83,2.01,.13,2.79,.57,2.79,1.99,0,1.4-.63,1.85-2.57,1.84-1.84,0-1.47,.07-1.5-2.01Z"/><path class="cls-1" d="M143.19,123.28c.44,1.36,.85,2.6,1.24,3.84,.14,.44,0,.69-.5,.7-.04,0-.08,0-.12,0-2.26,.23-2.38,.1-1.64-2.02,.28-.8,.39-1.69,1.01-2.52Z"/></g></svg>