<?xml version="1.0" encoding="UTF-8"?><svg id="Layer_2" xmlns="http://www.w3.org/2000/svg" width="184.57" height="184.25" viewBox="0 0 184.57 184.25"><defs><style>.cls-1{fill:#fff;}.cls-2{fill:#e9212f;}.cls-3{fill:#010101;}</style></defs><g id="Layer_1-2"><path class="cls-2" d="M159.44,92.33c0,37.11-30.08,67.19-67.19,67.19S25.07,129.43,25.07,92.33,55.15,25.14,92.26,25.14s67.19,30.08,67.19,67.19"/><path class="cls-1" d="M80.59,71.18l2.77-16.5c2.77-.29,5.84-.74,9.05-.74,2.77,0,5.84,.3,8.76,.74l2.48,16.5h7.59l4.96-14.29c3.94,.29,8.03,1.03,11.96,3.09l-.87,14.44c-.72,5.75-2.92,10.31-7.59,13.55-7.3-.88-15.32-2.64-27.29-2.64-7.73,0-16.05,.87-26.56,2.64-5.25-2.64-7.29-6.92-8.03-11.78l-1.46-16.21c3.36-1.76,8.47-2.95,12.26-3.09l4.97,14.29h7Z"/><path class="cls-1" d="M65.84,96.09c5.41-1.47,15.91-2.8,26.56-2.8s20.87,1.18,27.29,2.8l4.96,34.63c-12.4-1.62-23.2-2.5-32.25-2.5-14.15,0-25.98,1.78-32.1,2.5l5.54-34.63Z"/><path class="cls-3" d="M9.18,76.6c-.17,.91-1.07,1.51-2,1.34-.93-.17-1.53-1.06-1.35-2,.18-.94,1.08-1.54,1.99-1.37,.91,.17,1.55,1.04,1.37,2.02h0Z"/><path class="cls-3" d="M175.36,76.72c-.17-.91,.45-1.8,1.38-1.97,.93-.17,1.81,.43,1.99,1.38,.17,.94-.45,1.83-1.36,2-.91,.17-1.82-.41-2-1.39v-.02Z"/><polygon class="cls-3" points="8.24 54.07 8.81 52.89 18.25 57.49 20.2 53.5 21.23 54 18.71 59.17 8.24 54.07"/><path class="cls-3" d="M17.36,48.78c-2.97-2.02-3.44-5.71-1.59-8.43,1.92-2.82,5.58-3.55,8.4-1.63,2.82,1.92,3.49,5.58,1.56,8.41-1.94,2.85-5.62,3.53-8.36,1.66h-.01Zm.71-1.11c2.26,1.54,5.19,1.04,6.73-1.21,1.55-2.28,.85-5.19-1.35-6.69-2.2-1.5-5.17-1.08-6.73,1.21-1.54,2.26-.89,5.17,1.34,6.68h.01Z"/><path class="cls-3" d="M37.09,29.05c.73,1.8,.39,4.33-1.43,6.14-2.44,2.44-6.18,2.41-8.56,.03-2.35-2.35-2.45-6.08,.02-8.55,2.04-2.04,4.68-1.96,6.2-1.39l-.99,.99c-.77-.21-2.81-.38-4.4,1.21-1.93,1.92-1.85,4.9,.07,6.81,1.95,1.95,4.92,2,6.83,.09,1.72-1.73,1.37-3.84,1.26-4.35l.99-.99Z"/><path class="cls-3" d="M42.15,29.04l-1.14,.81-2.81-12.31,1.03-.73,10.69,6.68-1.15,.82-3.01-1.88-4.42,3.16,.81,3.44Zm-2.63-10.64l1.51,6.1,3.78-2.7-5.29-3.4Z"/><polygon class="cls-3" points="47.75 11.45 48.91 10.85 53.75 20.17 57.69 18.12 58.22 19.14 53.12 21.79 47.75 11.45"/><path class="cls-3" d="M61.78,17.55l-1.32,.46,.74-12.6,1.19-.42,8.4,9.4-1.34,.47-2.36-2.64-5.13,1.8-.18,3.53Zm.45-10.95l-.25,6.28,4.38-1.53-4.13-4.74Z"/><path class="cls-3" d="M81.61,3.62c-.44-.44-.94-.79-1.49-1.03-.83-.39-1.78-.54-2.8-.37-2.52,.41-4.39,2.7-3.92,5.57,.48,2.92,3,4.48,5.52,4.07,1.21-.2,2.21-.79,2.9-1.55,.7-.77,1.12-1.73,1.16-2.66l-5.71,.94-.17-1.06,7.21-1.18c.1,.67,.08,1.53-.15,2.3-.64,2.32-2.73,3.96-5.04,4.34-3.36,.55-6.43-1.59-6.99-4.99-.57-3.45,1.73-6.38,5.05-6.92,2.33-.38,4.7,.57,5.91,2.3l-1.46,.24Z"/><polygon class="cls-3" points="88.91 .11 95.37 0 95.38 1.15 90.22 1.23 90.29 5.28 95.42 5.2 95.44 6.34 90.31 6.43 90.37 10.58 95.54 10.5 95.56 11.65 89.1 11.75 88.91 .11"/><polygon class="cls-3" points="108.3 11.27 109.76 1.65 111.01 1.84 109.24 13.36 107.99 13.16 102.65 2.42 101.19 12.12 99.95 11.93 101.72 .41 103.02 .62 108.3 11.27"/><polygon class="cls-3" points="118.54 5.05 115.8 4.21 116.14 3.11 122.88 5.19 122.54 6.29 119.79 5.44 116.69 15.47 115.44 15.08 118.54 5.05"/><polygon class="cls-3" points="127.6 7.03 132.99 9.45 132.52 10.5 128.3 8.6 126.63 12.34 130.82 14.22 130.34 15.28 126.15 13.4 124 18.18 122.82 17.65 127.6 7.03"/><rect class="cls-3" x="129.51" y="16.72" width="11.65" height="1.29" transform="translate(52.73 125.96) rotate(-60.05)"/><polygon class="cls-3" points="144.71 28.5 150.56 20.73 151.57 21.48 144.55 30.78 143.54 30.02 143.94 18.03 138.06 25.88 137.05 25.12 144.07 15.82 145.12 16.62 144.71 28.5"/><path class="cls-3" d="M156.43,25.87l2.38,2.53c1.13,1.2,2.08,2.74,1.86,4.53-.11,1.4-.79,2.67-2,3.8-2.56,2.41-5.62,2.54-8.31-.31l-2.43-2.58,8.48-7.98Zm-6.76,8.13l1.58,1.69c2.05,2.18,4.46,2.05,6.5,.13,.99-.93,1.61-2.01,1.7-3.15,.07-1.08-.3-2.23-1.39-3.38l-1.58-1.68-6.81,6.41Z"/><polygon class="cls-3" points="166.47 37.4 170.14 42.71 169.19 43.36 166.26 39.11 162.93 41.41 165.84 45.63 164.9 46.29 161.98 42.06 158.56 44.43 161.5 48.67 160.55 49.33 156.88 44.02 166.47 37.4"/><path class="cls-3" d="M173.15,47.77l1.36,2.72c.82,1.63,1,2.49,.93,3.19-.08,1.1-.9,2.23-2.08,2.83-.7,.37-1.54,.54-2.35,.41-1.15-.2-1.73-.84-2.3-1.75l-2.6,4.54-.64-1.27,3.07-5.22,.17,.34c.37,.73,.89,1.74,1.69,2.04,.81,.28,1.56,.2,2.31-.17,.77-.39,1.4-1.18,1.5-2.04,.08-.69-.21-1.36-.68-2.3l-.82-1.63-9.38,4.71-.59-1.17,10.41-5.23Z"/><path class="cls-3" d="M9.18,76.6c-.17,.91-1.07,1.51-2,1.34-.93-.17-1.53-1.06-1.35-2,.18-.94,1.08-1.54,1.99-1.37,.91,.17,1.55,1.04,1.37,2.02h0Z"/><path class="cls-3" d="M.04,90.93l-.04-1.4,11.78,4.53,.04,1.26L.31,100.47l-.04-1.42,3.23-1.45-.15-5.43L.04,90.93Zm10.3,3.75l-5.9-2.15,.13,4.64,5.77-2.5Z"/><path class="cls-3" d="M11.12,112.59c.42-.45,.75-.97,.98-1.53,.36-.84,.48-1.8,.28-2.82-.5-2.5-2.84-4.3-5.7-3.73-2.9,.58-4.38,3.15-3.89,5.65,.24,1.2,.87,2.19,1.64,2.85,.79,.68,1.77,1.06,2.7,1.07l-1.13-5.68,1.05-.21,1.42,7.16c-.67,.12-1.53,.13-2.31-.07-2.34-.56-4.05-2.6-4.5-4.9-.66-3.33,1.38-6.48,4.76-7.15,3.43-.68,6.43,1.52,7.09,4.82,.46,2.32-.41,4.72-2.1,5.99l-.29-1.45Z"/><polygon class="cls-3" points="15.72 117.52 17.98 123.57 16.9 123.97 15.1 119.13 11.31 120.54 13.1 125.35 12.02 125.75 10.23 120.95 6.33 122.4 8.14 127.23 7.06 127.64 4.81 121.59 15.72 117.52"/><polygon class="cls-3" points="15.01 139.09 23.51 134.35 24.12 135.45 13.94 141.11 13.33 140.01 18.54 129.2 9.98 133.99 9.37 132.89 19.56 127.24 20.2 128.39 15.01 139.09"/><polygon class="cls-3" points="26.78 141.11 25.05 138.83 25.96 138.13 30.23 143.75 29.31 144.44 27.57 142.15 19.21 148.49 18.42 147.45 26.78 141.11"/><path class="cls-3" d="M29.24,159.67l-1.06-.91,11.27-5.68,.96,.82-3.93,11.98-1.08-.92,1.1-3.37-4.12-3.54-3.15,1.62Zm9.7-5.1l-5.56,2.93,3.53,3.02,2.03-5.95Z"/><polygon class="cls-3" points="45.11 157.95 46.26 158.63 43.48 168.47 50.72 161.29 51.56 161.79 48.74 171.6 56.04 164.46 57.17 165.13 48.41 173.48 47.32 172.82 50.02 163.42 43.04 170.28 41.92 169.61 45.11 157.95"/><path class="cls-3" d="M55.64,177l-1.31-.5,8.69-9.15,1.18,.45,.35,12.6-1.33-.51-.1-3.54-5.08-1.93-2.42,2.58Zm7.41-8.08l-4.24,4.63,4.34,1.65-.1-6.29Z"/><path class="cls-3" d="M71.73,170.26l2.97,.64c1.79,.39,2.57,.78,3.08,1.28,.8,.75,1.17,2.1,.89,3.4-.15,.77-.54,1.54-1.16,2.09-.88,.78-1.74,.82-2.81,.7l1.91,4.87-1.39-.3-2.15-5.66,.37,.08c.8,.17,1.91,.4,2.65-.04,.73-.46,1.14-1.09,1.31-1.91,.18-.85-.04-1.83-.65-2.44-.49-.49-1.19-.69-2.22-.91l-1.79-.38-2.21,10.26-1.28-.27,2.45-11.39Z"/><path class="cls-3" d="M82.79,172.39l3.47,.21c1.65,.1,3.39,.57,4.46,2.02,.88,1.1,1.25,2.49,1.15,4.14-.21,3.5-2.35,5.71-6.26,5.47l-3.53-.22,.71-11.63Zm.65,10.56l2.31,.14c2.98,.18,4.65-1.56,4.82-4.36,.08-1.35-.21-2.57-.92-3.46-.69-.83-1.74-1.42-3.33-1.51l-2.31-.14-.57,9.33Z"/><polygon class="cls-3" points="101.06 172.65 102.37 172.39 106.88 181.56 107.47 171.39 108.43 171.2 112.89 180.38 113.54 170.19 114.83 169.93 113.9 181.99 112.64 182.24 108.37 173.44 107.77 183.2 106.48 183.45 101.06 172.65"/><rect class="cls-3" x="119.85" y="168.09" width="1.29" height="11.65" transform="translate(-50.23 48.95) rotate(-19.08)"/><polygon class="cls-3" points="134.97 171.89 130.68 163.16 131.81 162.61 136.93 173.07 135.8 173.63 125.28 167.86 129.62 176.65 128.49 177.2 123.37 166.74 124.56 166.16 134.97 171.89"/><polygon class="cls-3" points="147.69 163.6 142 155.71 143.02 154.98 149.82 164.43 148.8 165.17 137.46 161.24 143.21 169.18 142.19 169.92 135.39 160.46 136.46 159.69 147.69 163.6"/><polygon class="cls-3" points="146.21 152.14 150.83 147.64 151.63 148.46 147.93 152.06 150.76 154.96 154.43 151.38 155.24 152.2 151.56 155.79 154.46 158.76 158.16 155.16 158.96 155.98 154.34 160.49 146.21 152.14"/><path class="cls-3" d="M153.49,144.7l1.87-2.39c1.13-1.44,1.82-1.97,2.49-2.21,1.03-.39,2.4-.14,3.45,.68,.63,.47,1.15,1.16,1.37,1.95,.32,1.13-.02,1.92-.6,2.83l5.22,.41-.87,1.12-6.03-.54,.23-.3c.5-.65,1.19-1.55,1.12-2.4-.09-.85-.49-1.5-1.14-2.01-.68-.53-1.66-.76-2.48-.48-.66,.23-1.14,.77-1.79,1.6l-1.12,1.44,8.27,6.47-.81,1.03-9.17-7.18Z"/><path class="cls-3" d="M173.09,134.52c-.57-1.7-1.17-3.39-1.75-5.07-.45-1.4-.85-2.84-2.12-3.51-1.38-.65-2.69-.12-3.27,1.1-.58,1.22-.04,2.56,1.55,3.36l-.53,1.12c-1.01-.51-1.75-1.21-2.1-2.11-.51-1.09-.25-2.24,.1-2.98,.92-1.95,2.96-2.57,4.75-1.69,1.12,.58,1.67,1.48,2.26,3.03,.61,1.7,1.22,3.39,1.82,5.11l2.41-5.11,1.01,.48-3.17,6.72-.95-.45Z"/><path class="cls-3" d="M171.56,121.31c-3.21-1.01-3.01-3.88-2.67-4.96,.56-1.79,2.41-3.39,4.93-2.6l4,1.25c2.93,.92,2.98,3.67,2.59,4.9-.44,1.41-2.09,3.52-4.94,2.62l-3.9-1.22Zm4.33-.02c1.56,.49,2.97-.27,3.42-1.7,.36-1.16-.11-2.8-1.84-3.35l-4.06-1.27c-1.1-.34-2.83-.16-3.43,1.73-.46,1.46,.3,2.83,1.91,3.33l4,1.25Z"/><path class="cls-3" d="M181.5,111.02c-1.01-1.48-2.05-2.94-3.06-4.4-.82-1.22-1.6-2.5-3-2.8-1.51-.25-2.62,.62-2.85,1.95-.22,1.33,.66,2.47,2.4,2.81l-.2,1.23c-1.11-.22-2.01-.68-2.6-1.45-.79-.91-.85-2.09-.71-2.9,.35-2.13,2.14-3.28,4.11-2.92,1.23,.25,2.01,.97,3,2.3,1.05,1.47,2.1,2.93,3.14,4.42l.93-5.57,1.1,.18-1.22,7.33-1.04-.17Z"/><path class="cls-3" d="M176.43,98.72c-3.37-.1-3.95-2.91-3.92-4.05,.05-1.87,1.4-3.91,4.05-3.84l4.18,.12c3.07,.09,3.86,2.72,3.82,4.01-.04,1.48-1.06,3.95-4.05,3.87l-4.09-.12Zm4.16-1.19c1.64,.05,2.79-1.07,2.83-2.56,.04-1.21-.87-2.67-2.68-2.72l-4.25-.12c-1.15-.03-2.77,.61-2.83,2.6-.04,1.53,1.06,2.64,2.74,2.69l4.19,.12Z"/><path class="cls-3" d="M175.36,76.72c-.17-.91,.45-1.8,1.38-1.97,.93-.17,1.81,.43,1.99,1.38,.17,.94-.45,1.83-1.36,2-.91,.17-1.82-.41-2-1.39v-.02Z"/></g></svg>