<?xml version="1.0" encoding="UTF-8"?><svg id="Layer_2" xmlns="http://www.w3.org/2000/svg" width="184.57" height="184.43" viewBox="0 0 184.57 184.43"><defs><style>.cls-1{fill:#fff;}.cls-2{fill:#ee323e;}</style></defs><g id="Layer_1-2"><path class="cls-2" d="M159.6,92.42c0,37.14-30.11,67.25-67.25,67.25S25.1,129.56,25.1,92.42,55.21,25.17,92.35,25.17s67.25,30.11,67.25,67.25"/><path class="cls-1" d="M80.67,71.25l2.77-16.51c2.77-.29,5.84-.74,9.06-.74,2.78,0,5.84,.3,8.77,.74l2.48,16.51h7.6l4.97-14.3c3.94,.29,8.04,1.03,11.97,3.1l-.87,14.46c-.72,5.76-2.92,10.32-7.6,13.56-7.3-.88-15.34-2.64-27.32-2.64-7.74,0-16.07,.87-26.59,2.64-5.26-2.64-7.3-6.93-8.04-11.79l-1.46-16.23c3.36-1.77,8.48-2.96,12.27-3.1l4.98,14.3h7.01Z"/><path class="cls-1" d="M65.91,96.18c5.42-1.47,15.92-2.8,26.59-2.8s20.89,1.18,27.32,2.8l4.96,34.66c-12.41-1.62-23.22-2.5-32.29-2.5-14.16,0-26,1.78-32.13,2.5l5.55-34.66Z"/><path d="M9.19,76.68c-.17,.91-1.07,1.52-2,1.34-.93-.18-1.53-1.06-1.36-2,.18-.95,1.08-1.55,1.99-1.37,.91,.17,1.55,1.05,1.37,2.02h0Z"/><path d="M.04,91.02l-.04-1.4,11.79,4.53,.04,1.26L.31,100.57l-.04-1.42,3.24-1.45-.16-5.43L.04,91.02Zm10.31,3.76l-5.91-2.15,.13,4.65,5.78-2.5Z"/><path d="M11.13,112.7c.42-.45,.76-.97,.98-1.53,.36-.84,.48-1.8,.28-2.82-.5-2.51-2.85-4.3-5.71-3.74-2.91,.58-4.39,3.15-3.89,5.66,.24,1.21,.87,2.19,1.64,2.85,.79,.68,1.77,1.06,2.7,1.07l-1.13-5.69,1.05-.21,1.42,7.17c-.67,.12-1.53,.13-2.31-.07-2.35-.56-4.05-2.6-4.51-4.91-.66-3.34,1.38-6.49,4.76-7.16,3.43-.68,6.44,1.52,7.1,4.83,.46,2.32-.41,4.72-2.1,5.99l-.29-1.45Z"/><polygon points="15.74 117.64 17.99 123.69 16.91 124.09 15.11 119.25 11.32 120.66 13.11 125.48 12.03 125.88 10.24 121.06 6.34 122.52 8.14 127.36 7.07 127.76 4.81 121.71 15.74 117.64"/><polygon points="15.03 139.23 23.53 134.48 24.14 135.59 13.95 141.25 13.34 140.15 18.56 129.33 9.99 134.13 9.38 133.02 19.58 127.36 20.22 128.52 15.03 139.23"/><polygon points="26.81 141.25 25.07 138.96 25.99 138.27 30.26 143.89 29.34 144.59 27.6 142.29 19.23 148.64 18.44 147.6 26.81 141.25"/><path d="M29.27,159.82l-1.07-.91,11.29-5.68,.96,.82-3.93,11.99-1.08-.92,1.1-3.37-4.13-3.54-3.15,1.62Zm9.71-5.1l-5.56,2.93,3.53,3.03,2.03-5.96Z"/><polygon points="45.15 158.1 46.31 158.79 43.52 168.63 50.77 161.45 51.61 161.95 48.79 171.77 56.09 164.62 57.23 165.3 48.46 173.65 47.37 172.99 50.07 163.58 43.09 170.45 41.96 169.78 45.15 158.1"/><path d="M55.69,177.18l-1.31-.5,8.7-9.16,1.18,.45,.35,12.61-1.33-.51-.1-3.54-5.08-1.94-2.42,2.59Zm7.42-8.08l-4.25,4.64,4.34,1.66-.1-6.29Z"/><path d="M71.8,170.43l2.97,.64c1.79,.38,2.57,.78,3.08,1.27,.8,.75,1.17,2.11,.89,3.4-.15,.77-.54,1.54-1.16,2.09-.88,.78-1.74,.82-2.81,.7l1.92,4.88-1.39-.3-2.15-5.67,.37,.08c.8,.17,1.91,.4,2.65-.04,.73-.46,1.14-1.09,1.31-1.91,.18-.85-.04-1.83-.65-2.45-.49-.49-1.19-.69-2.22-.91l-1.79-.39-2.21,10.28-1.28-.28,2.46-11.4Z"/><path d="M82.87,172.56l3.48,.21c1.65,.1,3.39,.57,4.47,2.02,.88,1.1,1.25,2.49,1.15,4.14-.21,3.51-2.35,5.71-6.27,5.47l-3.54-.22,.71-11.64Zm.65,10.57l2.31,.14c2.99,.18,4.66-1.56,4.83-4.36,.08-1.35-.21-2.57-.93-3.47-.69-.83-1.74-1.42-3.33-1.51l-2.31-.14-.57,9.34Z"/><polygon points="101.16 172.82 102.47 172.56 106.99 181.74 107.57 171.56 108.53 171.37 113 180.55 113.65 170.36 114.95 170.1 114.01 182.17 112.76 182.42 108.48 173.61 107.87 183.38 106.59 183.64 101.16 172.82"/><rect x="119.97" y="168.26" width="1.29" height="11.66" transform="translate(-50.34 49.07) rotate(-19.11)"/><polygon points="135.1 172.06 130.81 163.33 131.94 162.77 137.06 173.24 135.93 173.8 125.4 168.02 129.75 176.82 128.61 177.38 123.49 166.91 124.68 166.32 135.1 172.06"/><polygon points="147.84 163.76 142.14 155.87 143.16 155.13 149.97 164.59 148.95 165.33 137.6 161.4 143.36 169.35 142.33 170.09 135.52 160.62 136.6 159.85 147.84 163.76"/><polygon points="146.35 152.29 150.98 147.79 151.78 148.61 148.08 152.22 150.91 155.12 154.59 151.53 155.39 152.36 151.71 155.94 154.61 158.92 158.31 155.31 159.12 156.14 154.49 160.65 146.35 152.29"/><path d="M153.64,144.84l1.87-2.39c1.13-1.44,1.82-1.97,2.49-2.21,1.03-.4,2.41-.14,3.45,.68,.63,.47,1.15,1.16,1.37,1.95,.32,1.13-.02,1.92-.6,2.83l5.22,.41-.87,1.12-6.04-.54,.23-.3c.51-.65,1.19-1.55,1.12-2.4-.09-.85-.49-1.5-1.14-2.02-.68-.53-1.66-.76-2.48-.48-.66,.23-1.14,.77-1.79,1.6l-1.13,1.44,8.28,6.48-.81,1.03-9.18-7.19Z"/><path d="M173.26,134.66c-.57-1.7-1.17-3.39-1.75-5.08-.45-1.4-.85-2.84-2.12-3.51-1.38-.65-2.7-.12-3.27,1.1-.58,1.23-.04,2.56,1.55,3.36l-.53,1.12c-1.01-.51-1.75-1.21-2.11-2.11-.51-1.1-.25-2.24,.1-2.98,.92-1.95,2.96-2.57,4.75-1.69,1.12,.58,1.67,1.49,2.26,3.04,.61,1.7,1.22,3.4,1.82,5.11l2.42-5.11,1.01,.48-3.18,6.72-.95-.45Z"/><path d="M171.73,121.43c-3.22-1.01-3.01-3.88-2.67-4.96,.56-1.79,2.41-3.39,4.94-2.6l4,1.25c2.93,.92,2.98,3.67,2.59,4.9-.44,1.41-2.09,3.52-4.95,2.63l-3.91-1.22Zm4.33-.02c1.56,.49,2.97-.27,3.42-1.7,.36-1.16-.11-2.81-1.84-3.35l-4.06-1.27c-1.1-.34-2.84-.16-3.43,1.73-.46,1.46,.3,2.84,1.91,3.34l4,1.25Z"/><path d="M181.68,111.13c-1.02-1.48-2.05-2.94-3.07-4.41-.82-1.22-1.6-2.5-3-2.8-1.51-.25-2.63,.62-2.85,1.95-.22,1.34,.66,2.47,2.41,2.81l-.2,1.23c-1.11-.22-2.01-.68-2.6-1.46-.79-.91-.85-2.09-.72-2.9,.35-2.13,2.14-3.29,4.11-2.93,1.24,.25,2.01,.97,3,2.3,1.05,1.47,2.1,2.94,3.14,4.42l.93-5.58,1.1,.18-1.22,7.33-1.04-.17Z"/><polygon points="173.99 95.26 173.93 97.61 172.81 97.58 172.91 93.92 184.57 94.26 184.53 95.57 173.99 95.26"/><path d="M175.53,76.8c-.17-.91,.45-1.8,1.38-1.97,.93-.17,1.81,.43,1.99,1.38s-.45,1.83-1.36,2c-.91,.17-1.82-.41-2.01-1.39v-.02Z"/><polygon points="8.25 54.12 8.82 52.95 18.27 57.55 20.22 53.55 21.25 54.05 18.73 59.22 8.25 54.12"/><path d="M17.37,48.83c-2.97-2.02-3.45-5.72-1.59-8.44,1.92-2.83,5.58-3.55,8.41-1.63,2.83,1.92,3.5,5.58,1.57,8.42-1.94,2.85-5.62,3.53-8.37,1.66h-.01Zm.71-1.11c2.27,1.54,5.2,1.04,6.73-1.21,1.55-2.28,.85-5.2-1.35-6.69-2.2-1.5-5.17-1.08-6.73,1.21-1.54,2.27-.89,5.17,1.34,6.69h.01Z"/><path d="M37.13,29.08c.73,1.81,.39,4.33-1.43,6.15-2.44,2.44-6.18,2.42-8.57,.03-2.35-2.35-2.45-6.08,.02-8.56,2.04-2.04,4.68-1.96,6.21-1.39l-.99,.99c-.77-.21-2.81-.38-4.4,1.21-1.93,1.93-1.85,4.9,.07,6.82,1.95,1.95,4.92,2.01,6.84,.09,1.73-1.73,1.37-3.84,1.26-4.36l.99-.99Z"/><path d="M42.19,29.06l-1.14,.82-2.82-12.32,1.02-.73,10.7,6.69-1.15,.82-3.01-1.88-4.42,3.16,.82,3.45Zm-2.63-10.65l1.51,6.1,3.78-2.7-5.3-3.4Z"/><polygon points="47.8 11.46 48.96 10.86 53.8 20.19 57.74 18.14 58.27 19.16 53.17 21.81 47.8 11.46"/><path d="M61.84,17.57l-1.32,.46,.74-12.61,1.19-.42,8.4,9.41-1.34,.47-2.36-2.65-5.13,1.8-.18,3.54Zm.45-10.96l-.25,6.28,4.39-1.54-4.13-4.75Z"/><path d="M81.69,3.62c-.44-.44-.94-.79-1.5-1.03-.83-.39-1.78-.54-2.81-.37-2.52,.41-4.39,2.7-3.92,5.58,.48,2.92,3.01,4.49,5.52,4.07,1.21-.2,2.22-.8,2.91-1.55,.7-.77,1.12-1.73,1.16-2.66l-5.72,.94-.17-1.06,7.21-1.19c.1,.67,.08,1.54-.15,2.31-.64,2.32-2.73,3.96-5.05,4.34-3.36,.55-6.44-1.59-7-5-.57-3.45,1.73-6.38,5.06-6.93,2.33-.38,4.71,.57,5.92,2.3l-1.46,.24Z"/><polygon points="89 .11 95.46 0 95.48 1.15 90.31 1.23 90.38 5.28 95.51 5.2 95.53 6.35 90.4 6.43 90.46 10.59 95.63 10.51 95.65 11.66 89.19 11.77 89 .11"/><polygon points="108.41 11.28 109.87 1.65 111.12 1.84 109.35 13.37 108.1 13.18 102.75 2.42 101.29 12.13 100.05 11.94 101.82 .41 103.13 .62 108.41 11.28"/><polygon points="118.65 5.06 115.91 4.21 116.25 3.11 123 5.2 122.66 6.3 119.9 5.44 116.8 15.48 115.55 15.1 118.65 5.06"/><polygon points="127.72 7.03 133.13 9.46 132.65 10.51 128.43 8.61 126.75 12.35 130.95 14.23 130.47 15.3 126.27 13.41 124.12 18.2 122.94 17.67 127.72 7.03"/><rect x="129.64" y="16.73" width="11.66" height="1.29" transform="translate(52.76 126.07) rotate(-60.04)"/><polygon points="144.86 28.53 150.71 20.75 151.72 21.51 144.69 30.81 143.69 30.05 144.08 18.05 138.19 25.9 137.19 25.14 144.21 15.84 145.27 16.64 144.86 28.53"/><path d="M156.58,25.9l2.39,2.54c1.13,1.21,2.08,2.74,1.87,4.54-.11,1.4-.79,2.67-2,3.81-2.56,2.41-5.63,2.55-8.32-.31l-2.43-2.58,8.49-7.99Zm-6.77,8.14l1.59,1.69c2.05,2.18,4.46,2.05,6.51,.13,.99-.93,1.61-2.01,1.7-3.16,.07-1.08-.3-2.23-1.39-3.39l-1.59-1.69-6.82,6.41Z"/><polygon points="166.63 37.43 170.31 42.75 169.36 43.4 166.42 39.15 163.09 41.45 166.01 45.68 165.06 46.33 162.14 42.11 158.72 44.47 161.66 48.72 160.71 49.38 157.04 44.06 166.63 37.43"/><path d="M173.32,47.82l1.36,2.72c.82,1.63,1.01,2.49,.94,3.2-.08,1.1-.9,2.24-2.09,2.83-.7,.37-1.54,.54-2.35,.41-1.16-.2-1.73-.84-2.31-1.75l-2.6,4.55-.64-1.27,3.07-5.23,.17,.34c.37,.73,.89,1.74,1.69,2.04,.81,.28,1.57,.2,2.31-.17,.77-.39,1.4-1.18,1.5-2.04,.08-.69-.21-1.36-.68-2.3l-.82-1.63-9.39,4.72-.59-1.17,10.42-5.23Z"/></g></svg>