<?xml version="1.0" encoding="UTF-8"?><svg id="Layer_2" xmlns="http://www.w3.org/2000/svg" width="178.7" height="178.6" viewBox="0 0 178.7 178.6"><defs><style>.cls-1{fill:#fff;}.cls-2{fill:#e9212f;}.cls-3{fill:#010101;}</style></defs><g id="Layer_1-2"><g><path class="cls-2" d="M154.55,89.49c0,35.97-29.16,65.12-65.12,65.12S24.3,125.46,24.3,89.49,53.46,24.37,89.43,24.37s65.12,29.16,65.12,65.12"/><path class="cls-1" d="M78.12,68.99l2.68-15.99c2.69-.28,5.66-.72,8.77-.72,2.69,0,5.66,.29,8.49,.72l2.4,15.99h7.36l4.81-13.85c3.82,.28,7.78,.99,11.6,3l-.85,14c-.7,5.57-2.83,9.99-7.36,13.13-7.07-.85-14.85-2.55-26.45-2.55-7.49,0-15.56,.85-25.75,2.55-5.09-2.55-7.07-6.71-7.78-11.42l-1.42-15.72c3.25-1.71,8.21-2.86,11.88-3l4.82,13.85h6.79Z"/><path class="cls-1" d="M63.82,93.14c5.25-1.43,15.42-2.71,25.75-2.71s20.23,1.14,26.46,2.71l4.81,33.57c-12.02-1.57-22.49-2.43-31.26-2.43-13.72,0-25.18,1.73-31.12,2.43l5.37-33.57Z"/><path class="cls-3" d="M8.9,74.25c-.17,.88-1.04,1.47-1.94,1.3-.9-.17-1.48-1.03-1.31-1.94,.17-.92,1.04-1.5,1.93-1.33,.88,.17,1.5,1.01,1.32,1.96v.02Z"/><path class="cls-3" d="M.04,88.14l-.04-1.36,11.42,4.39,.03,1.22L.3,97.39l-.04-1.37,3.14-1.4-.15-5.26L.04,88.14Zm9.98,3.64l-5.72-2.08,.13,4.5,5.59-2.42Z"/><path class="cls-3" d="M10.78,109.13c.41-.44,.73-.94,.95-1.48,.35-.82,.46-1.74,.27-2.73-.48-2.42-2.76-4.17-5.52-3.62-2.81,.56-4.25,3.05-3.77,5.48,.23,1.17,.84,2.12,1.59,2.76,.77,.66,1.71,1.03,2.62,1.04l-1.09-5.51,1.02-.2,1.38,6.95c-.65,.11-1.48,.12-2.24-.07-2.27-.54-3.92-2.52-4.36-4.75-.64-3.23,1.34-6.29,4.61-6.94,3.32-.66,6.23,1.47,6.87,4.67,.45,2.25-.4,4.58-2.04,5.8l-.28-1.41Z"/><path class="cls-3" d="M15.24,113.91l2.18,5.86-1.04,.39-1.75-4.69-3.67,1.37,1.74,4.66-1.04,.39-1.74-4.66-3.77,1.41,1.75,4.69-1.04,.39-2.18-5.86,10.58-3.94Z"/><path class="cls-3" d="M14.55,134.82l8.24-4.59,.59,1.07-9.87,5.48-.59-1.07,5.06-10.47-8.3,4.64-.59-1.07,9.87-5.48,.62,1.12-5.03,10.37Z"/><path class="cls-3" d="M25.96,136.77l-1.68-2.21,.89-.67,4.13,5.45-.89,.67-1.69-2.22-8.11,6.15-.77-1.01,8.11-6.15Z"/><path class="cls-3" d="M28.34,154.77l-1.03-.88,10.93-5.5,.93,.79-3.8,11.61-1.04-.89,1.07-3.26-4-3.43-3.05,1.57Zm9.4-4.94l-5.39,2.84,3.42,2.93,1.97-5.77Z"/><path class="cls-3" d="M43.73,153.1l1.11,.66-2.69,9.53,7.02-6.96,.81,.48-2.73,9.51,7.07-6.92,1.1,.66-8.49,8.09-1.06-.63,2.62-9.11-6.76,6.65-1.09-.65,3.09-11.3Z"/><path class="cls-3" d="M53.93,171.57l-1.27-.48,8.43-8.87,1.14,.43,.34,12.21-1.28-.49-.09-3.43-4.92-1.88-2.34,2.5Zm7.18-7.83l-4.11,4.49,4.21,1.6-.09-6.09Z"/><path class="cls-3" d="M69.53,165.04l2.88,.62c1.73,.37,2.49,.76,2.98,1.24,.78,.73,1.14,2.04,.87,3.29-.15,.75-.52,1.5-1.12,2.02-.85,.75-1.68,.79-2.72,.68l1.85,4.72-1.34-.29-2.08-5.49,.36,.08c.78,.17,1.85,.38,2.57-.04,.7-.44,1.1-1.06,1.27-1.85,.18-.82-.04-1.77-.63-2.37-.48-.48-1.15-.67-2.15-.88l-1.73-.37-2.14,9.95-1.24-.27,2.38-11.04Z"/><path class="cls-3" d="M80.25,167.1l3.37,.21c1.6,.1,3.28,.55,4.33,1.96,.85,1.06,1.21,2.41,1.12,4.01-.21,3.4-2.28,5.53-6.07,5.3l-3.43-.21,.69-11.27Zm.63,10.24l2.24,.14c2.89,.18,4.51-1.51,4.68-4.22,.08-1.31-.2-2.49-.9-3.36-.67-.81-1.69-1.37-3.23-1.47l-2.24-.14-.55,9.05Z"/><path class="cls-3" d="M97.96,167.35l1.27-.25,4.37,8.89,.57-9.86,.93-.18,4.32,8.9,.63-9.88,1.26-.25-.91,11.69-1.21,.24-4.14-8.53-.59,9.46-1.24,.25-5.26-10.47Z"/><path class="cls-3" d="M114.36,163.45l1.18-.41,3.69,10.67-1.18,.41-3.69-10.67Z"/><path class="cls-3" d="M130.83,166.62l-4.16-8.46,1.1-.54,4.96,10.14-1.1,.54-10.2-5.59,4.21,8.52-1.1,.54-4.96-10.14,1.15-.56,10.09,5.56Z"/><path class="cls-3" d="M143.16,158.58l-5.52-7.65,.99-.71,6.59,9.17-.99,.71-10.99-3.81,5.58,7.7-.99,.71-6.59-9.17,1.04-.75,10.88,3.79Z"/><path class="cls-3" d="M141.72,147.47l4.48-4.37,.78,.8-3.58,3.49,2.74,2.81,3.56-3.47,.78,.8-3.56,3.47,2.81,2.89,3.58-3.49,.78,.8-4.48,4.37-7.88-8.09Z"/><path class="cls-3" d="M148.78,140.26l1.82-2.32c1.09-1.39,1.77-1.91,2.41-2.14,1-.38,2.33-.13,3.34,.66,.61,.46,1.12,1.13,1.33,1.89,.31,1.09-.02,1.86-.58,2.74l5.06,.39-.85,1.08-5.85-.53,.22-.29c.49-.62,1.15-1.5,1.09-2.33-.09-.83-.47-1.45-1.11-1.95-.66-.52-1.61-.74-2.4-.47-.64,.22-1.11,.74-1.74,1.55l-1.09,1.39,8.02,6.27-.78,1-8.89-6.96Z"/><path class="cls-3" d="M167.77,130.39c-.55-1.65-1.13-3.29-1.69-4.92-.44-1.35-.83-2.75-2.05-3.4-1.34-.63-2.61-.12-3.17,1.07s-.04,2.48,1.5,3.26l-.52,1.09c-.98-.5-1.69-1.17-2.04-2.04-.49-1.06-.24-2.17,.1-2.89,.89-1.89,2.87-2.49,4.61-1.64,1.08,.56,1.62,1.44,2.19,2.94,.59,1.65,1.18,3.29,1.76,4.95l2.34-4.95,.98,.46-3.08,6.51-.92-.44Z"/><path class="cls-3" d="M166.3,117.59c-3.12-.98-2.92-3.76-2.59-4.81,.54-1.73,2.34-3.28,4.78-2.52l3.87,1.21c2.84,.89,2.88,3.56,2.51,4.75-.43,1.37-2.03,3.41-4.79,2.54l-3.79-1.18Zm4.19-.02c1.51,.47,2.88-.27,3.31-1.65,.35-1.12-.11-2.72-1.78-3.24l-3.93-1.23c-1.06-.33-2.75-.16-3.32,1.68-.44,1.41,.29,2.75,1.85,3.23l3.87,1.21Z"/><path class="cls-3" d="M167.38,103.04l-.37,2.24-1.07-.18,.58-3.49,11.14,1.85-.21,1.25-10.07-1.68Z"/><path class="cls-3" d="M178.66,93.76l-3.21-2.35c-.27-.19-.52-.38-.78-.57,.17,.29,.37,.85,.36,1.44-.05,1.86-1.55,3.61-3.92,3.54-2.21-.06-3.95-1.82-3.88-4.07,.04-1.33,.59-2.38,1.43-3.01,.76-.62,1.78-.86,2.59-.84,1.27,.04,2.14,.56,2.87,1.07l4.59,3.35-.04,1.43Zm-7.53-4.61c-1.49-.04-2.75,1.01-2.79,2.61-.04,1.57,1.17,2.75,2.7,2.79,1.78,.05,2.84-1.28,2.88-2.57,.03-1.19-.79-2.77-2.77-2.83h-.02Z"/><path class="cls-3" d="M169.98,74.37c-.17-.88,.44-1.74,1.34-1.91,.9-.17,1.75,.42,1.92,1.33,.17,.92-.43,1.77-1.32,1.94s-1.77-.4-1.94-1.35h0Z"/><path class="cls-3" d="M7.99,52.41l.55-1.14,9.15,4.45,1.88-3.87,1,.49-2.44,5.01-10.15-4.94Z"/><path class="cls-3" d="M16.82,47.28c-2.88-1.96-3.34-5.54-1.54-8.17,1.86-2.74,5.41-3.44,8.15-1.58,2.74,1.86,3.39,5.41,1.52,8.16-1.88,2.76-5.45,3.42-8.11,1.61h-.01Zm.69-1.07c2.19,1.49,5.03,1.01,6.52-1.17,1.5-2.21,.82-5.03-1.31-6.48s-5.01-1.05-6.52,1.17c-1.49,2.19-.86,5.01,1.3,6.47h.01Z"/><path class="cls-3" d="M35.95,28.15c.71,1.75,.38,4.2-1.38,5.96-2.36,2.36-5.99,2.34-8.3,.03-2.28-2.28-2.38-5.89,.02-8.29,1.97-1.98,4.53-1.9,6.01-1.35l-.96,.96c-.74-.21-2.72-.37-4.26,1.18-1.87,1.87-1.79,4.75,.07,6.6,1.89,1.89,4.77,1.94,6.62,.09,1.67-1.67,1.33-3.72,1.22-4.22l.96-.96Z"/><path class="cls-3" d="M40.85,28.14l-1.1,.79-2.73-11.93,.99-.71,10.36,6.48-1.12,.8-2.91-1.82-4.28,3.06,.79,3.34Zm-2.55-10.31l1.46,5.91,3.66-2.62-5.13-3.29Z"/><path class="cls-3" d="M46.28,11.1l1.12-.58,4.69,9.03,3.82-1.98,.51,.99-4.94,2.57-5.2-10.02Z"/><path class="cls-3" d="M59.88,17.01l-1.28,.45,.72-12.22,1.15-.4,8.14,9.12-1.3,.45-2.29-2.56-4.97,1.74-.18,3.42Zm.44-10.61l-.25,6.08,4.25-1.49-4-4.6Z"/><path class="cls-3" d="M79.11,3.5c-.42-.42-.91-.76-1.45-1-.8-.38-1.72-.52-2.72-.36-2.44,.4-4.25,2.62-3.8,5.4,.47,2.83,2.91,4.35,5.35,3.94,1.17-.19,2.15-.77,2.81-1.5,.68-.75,1.08-1.68,1.12-2.58l-5.54,.91-.17-1.02,6.99-1.15c.09,.65,.07,1.49-.14,2.23-.62,2.25-2.65,3.84-4.89,4.21-3.25,.53-6.24-1.54-6.78-4.84-.55-3.34,1.67-6.18,4.9-6.71,2.26-.37,4.56,.55,5.73,2.23l-1.42,.23Z"/><path class="cls-3" d="M86.19,.1l6.25-.1,.02,1.11-5,.08,.06,3.92,4.97-.08,.02,1.11-4.97,.08,.07,4.03,5-.08,.02,1.11-6.25,.1-.18-11.29Z"/><path class="cls-3" d="M104.98,10.92l1.42-9.32,1.21,.18-1.71,11.16-1.21-.18-5.18-10.41-1.41,9.4-1.21-.19,1.71-11.16,1.27,.19,5.11,10.33Z"/><path class="cls-3" d="M114.9,4.89l-2.65-.82,.33-1.06,6.53,2.02-.33,1.06-2.67-.82-3,9.72-1.21-.37,3-9.72Z"/><path class="cls-3" d="M123.68,6.81l5.23,2.35-.46,1.02-4.09-1.84-1.63,3.62,4.06,1.83-.46,1.03-4.06-1.83-2.08,4.63-1.14-.51,4.63-10.3Z"/><path class="cls-3" d="M133.46,11.62l1.08,.62-5.64,9.79-1.08-.62,5.63-9.78Z"/><path class="cls-3" d="M140.27,27.62l5.67-7.54,.97,.74-6.8,9.01-.97-.74,.38-11.62-5.71,7.6-.97-.74,6.8-9.01,1.02,.77-.4,11.52Z"/><path class="cls-3" d="M151.63,25.08l2.31,2.46c1.1,1.17,2.01,2.65,1.81,4.4-.11,1.36-.77,2.59-1.94,3.69-2.48,2.33-5.45,2.47-8.05-.3l-2.35-2.5,8.23-7.74Zm-6.56,7.88l1.54,1.63c1.99,2.11,4.32,1.99,6.3,.13,.96-.9,1.56-1.95,1.65-3.06,.06-1.04-.29-2.16-1.35-3.28l-1.54-1.63-6.6,6.21Z"/><path class="cls-3" d="M161.36,36.25l3.56,5.15-.92,.63-2.84-4.12-3.23,2.23,2.83,4.09-.92,.63-2.83-4.09-3.31,2.29,2.84,4.12-.92,.63-3.56-5.15,9.29-6.42Z"/><path class="cls-3" d="M167.84,46.3l1.32,2.63c.79,1.58,.97,2.42,.91,3.1-.08,1.06-.88,2.17-2.02,2.74-.68,.36-1.49,.53-2.28,.39-1.12-.19-1.67-.82-2.23-1.7l-2.52,4.41-.62-1.23,2.97-5.06,.16,.33c.36,.71,.86,1.68,1.64,1.98,.79,.27,1.52,.19,2.24-.17,.75-.38,1.36-1.14,1.45-1.98,.07-.67-.2-1.32-.66-2.23l-.79-1.58-9.09,4.57-.57-1.13,10.09-5.07Z"/></g></g></svg>