<?xml version="1.0" encoding="UTF-8"?><svg id="Layer_2" xmlns="http://www.w3.org/2000/svg" width="506.93" height="30.07" viewBox="0 0 506.93 30.07"><defs><style>.cls-1,.cls-2{fill:#fff;}.cls-3,.cls-2{opacity:.5;}</style></defs><g id="Layer_1-2"><g class="cls-3"><rect class="cls-1" x=".5" y=".5" width="13" height="13"/><path class="cls-1" d="M13,1V13H1V1H13m1-1H0V14H14V0h0Z"/></g><g><rect class="cls-1" x="16.5" y=".5" width="13" height="13"/><path class="cls-1" d="M29,1V13h-12V1h12m1-1h-14V14h14V0h0Z"/></g><g><rect class="cls-1" x=".5" y="16.5" width="13" height="13"/><path class="cls-1" d="M13,17v12H1v-12H13m1-1H0v14H14v-14h0Z"/></g><g><rect class="cls-1" x="16.5" y="16.5" width="13" height="13"/><path class="cls-1" d="M29,17v12h-12v-12h12m1-1h-14v14h14v-14h0Z"/></g><g><path class="cls-1" d="M44.2,28.19c-1.24-1.25-1.86-2.93-1.86-5.04V8.31c0-2.08,.62-3.75,1.86-5,1.24-1.25,2.89-1.88,4.94-1.88s3.74,.62,4.98,1.86c1.24,1.24,1.86,2.91,1.86,5.02v.68c0,.27-.13,.4-.4,.4l-2.08,.12c-.27,0-.4-.13-.4-.4v-1c0-1.25-.36-2.27-1.08-3.04-.72-.77-1.68-1.16-2.88-1.16s-2.13,.39-2.86,1.16c-.73,.77-1.1,1.79-1.1,3.04v15.28c0,1.25,.37,2.27,1.1,3.04,.73,.77,1.69,1.16,2.86,1.16s2.16-.39,2.88-1.16c.72-.77,1.08-1.79,1.08-3.04v-1c0-.27,.13-.4,.4-.4l2.08,.12c.27,0,.4,.13,.4,.4v.64c0,2.11-.63,3.79-1.88,5.04s-2.91,1.88-4.96,1.88-3.7-.63-4.94-1.88Z"/><path class="cls-1" d="M71.74,29.39l-1-4.96c0-.05-.02-.09-.06-.12-.04-.03-.09-.04-.14-.04h-7.24c-.05,0-.1,.01-.14,.04-.04,.03-.06,.07-.06,.12l-1.04,4.96c-.03,.24-.17,.36-.44,.36h-2.04c-.13,0-.23-.04-.3-.12-.07-.08-.09-.19-.06-.32l6.04-27.2c.05-.24,.2-.36,.44-.36h2.4c.27,0,.41,.12,.44,.36l6.08,27.2v.08c0,.24-.12,.36-.36,.36h-2.08c-.24,0-.39-.12-.44-.36Zm-7.96-7.44h6.28c.08,0,.12-.05,.12-.16l-3.16-15.4c-.03-.08-.05-.12-.08-.12s-.05,.04-.08,.12l-3.2,15.4c0,.11,.04,.16,.12,.16Z"/><path class="cls-1" d="M78.9,29.35V2.15c0-.27,.13-.4,.4-.4h2.12c.21,0,.36,.11,.44,.32l8.04,20.16c.03,.08,.07,.12,.12,.12s.08-.04,.08-.12V2.15c0-.27,.13-.4,.4-.4h2c.27,0,.4,.13,.4,.4V29.35c0,.27-.13,.4-.4,.4h-2.12c-.21,0-.36-.11-.44-.32l-8.04-20.16c-.03-.08-.07-.11-.12-.1-.05,.01-.08,.06-.08,.14l.04,20.04c0,.27-.13,.4-.4,.4h-2.04c-.27,0-.4-.13-.4-.4Z"/><path class="cls-1" d="M110.38,27.75c-1.31,1.33-3.05,2-5.24,2h-6.12c-.27,0-.4-.13-.4-.4V2.15c0-.27,.13-.4,.4-.4h5.76c2.29,0,4.09,.63,5.4,1.9,1.31,1.27,1.96,3.07,1.96,5.42,0,2.99-1.11,5.03-3.32,6.12-.05,.03-.08,.05-.08,.08s.01,.05,.04,.08c2.35,1.36,3.52,3.63,3.52,6.8,.03,2.4-.61,4.27-1.92,5.6Zm-8.92-23.36V14.03c0,.11,.05,.16,.16,.16h3.16c1.44,0,2.56-.43,3.36-1.28,.8-.85,1.2-2.05,1.2-3.6s-.4-2.85-1.2-3.74c-.8-.89-1.92-1.34-3.36-1.34h-3.16c-.11,0-.16,.05-.16,.16Zm6.8,21.42c.8-.95,1.2-2.27,1.2-3.98s-.4-3.08-1.2-4.04-1.91-1.44-3.32-1.44h-3.32c-.11,0-.16,.05-.16,.16v10.56c0,.11,.05,.16,.16,.16h3.32c1.41,0,2.52-.47,3.32-1.42Z"/><path class="cls-1" d="M128.58,4.23h-9.28c-.11,0-.16,.05-.16,.16V14.31c0,.11,.05,.16,.16,.16h5.84c.27,0,.4,.13,.4,.4v1.72c0,.27-.13,.4-.4,.4h-5.84c-.11,0-.16,.05-.16,.16v9.96c0,.11,.05,.16,.16,.16h9.28c.27,0,.4,.13,.4,.4v1.68c0,.27-.13,.4-.4,.4h-11.88c-.27,0-.4-.13-.4-.4V2.15c0-.27,.13-.4,.4-.4h11.88c.27,0,.4,.13,.4,.4v1.68c0,.27-.13,.4-.4,.4Z"/><path class="cls-1" d="M144.18,29.43l-4.12-12.44c-.03-.08-.08-.12-.16-.12h-3.44c-.11,0-.16,.05-.16,.16v12.32c0,.27-.13,.4-.4,.4h-2.04c-.27,0-.4-.13-.4-.4V2.11c0-.27,.13-.4,.4-.4h6.6c1.95,0,3.52,.71,4.72,2.12,1.2,1.41,1.8,3.27,1.8,5.56,0,1.76-.37,3.27-1.12,4.52s-1.76,2.12-3.04,2.6c-.11,.03-.15,.09-.12,.2l4.36,12.6,.04,.16c0,.19-.12,.28-.36,.28h-2.08c-.24,0-.4-.11-.48-.32Zm-7.88-25.08V14.43c0,.11,.05,.16,.16,.16h3.6c1.23,0,2.21-.47,2.96-1.42,.75-.95,1.12-2.19,1.12-3.74s-.37-2.87-1.12-3.82c-.75-.95-1.73-1.42-2.96-1.42h-3.6c-.11,0-.16,.05-.16,.16Z"/><path class="cls-1" d="M161.9,29.43l-4.12-12.44c-.03-.08-.08-.12-.16-.12h-3.44c-.11,0-.16,.05-.16,.16v12.32c0,.27-.13,.4-.4,.4h-2.04c-.27,0-.4-.13-.4-.4V2.11c0-.27,.13-.4,.4-.4h6.6c1.95,0,3.52,.71,4.72,2.12,1.2,1.41,1.8,3.27,1.8,5.56,0,1.76-.37,3.27-1.12,4.52s-1.76,2.12-3.04,2.6c-.11,.03-.15,.09-.12,.2l4.36,12.6,.04,.16c0,.19-.12,.28-.36,.28h-2.08c-.24,0-.4-.11-.48-.32Zm-7.88-25.08V14.43c0,.11,.05,.16,.16,.16h3.6c1.23,0,2.21-.47,2.96-1.42,.75-.95,1.12-2.19,1.12-3.74s-.37-2.87-1.12-3.82c-.75-.95-1.73-1.42-2.96-1.42h-3.6c-.11,0-.16,.05-.16,.16Z"/><path class="cls-1" d="M180.46,29.39l-1-4.96c0-.05-.02-.09-.06-.12-.04-.03-.09-.04-.14-.04h-7.24c-.05,0-.1,.01-.14,.04-.04,.03-.06,.07-.06,.12l-1.04,4.96c-.03,.24-.17,.36-.44,.36h-2.04c-.13,0-.23-.04-.3-.12-.07-.08-.09-.19-.06-.32l6.04-27.2c.05-.24,.2-.36,.44-.36h2.4c.27,0,.41,.12,.44,.36l6.08,27.2v.08c0,.24-.12,.36-.36,.36h-2.08c-.24,0-.39-.12-.44-.36Zm-7.96-7.44h6.28c.08,0,.12-.05,.12-.16l-3.16-15.4c-.03-.08-.05-.12-.08-.12s-.05,.04-.08,.12l-3.2,15.4c0,.11,.04,.16,.12,.16Z"/></g><g><path class="cls-1" d="M220.2,3.78c1.2,1.43,1.8,3.3,1.8,5.62s-.59,4.14-1.76,5.54c-1.17,1.4-2.72,2.1-4.64,2.1h-4.12c-.11,0-.16,.05-.16,.16v12.08c0,.27-.13,.4-.4,.4h-2.04c-.27,0-.4-.13-.4-.4V2.04c0-.27,.13-.4,.4-.4h6.6c1.95,0,3.52,.71,4.72,2.14Zm-2.16,9.5c.75-.96,1.12-2.24,1.12-3.84s-.37-2.89-1.12-3.86c-.75-.97-1.72-1.46-2.92-1.46h-3.64c-.11,0-.16,.05-.16,.16V14.56c0,.11,.05,.16,.16,.16h3.64c1.2,0,2.17-.48,2.92-1.44Z"/><path class="cls-1" d="M236.92,29.36l-4.12-12.44c-.03-.08-.08-.12-.16-.12h-3.44c-.11,0-.16,.05-.16,.16v12.32c0,.27-.13,.4-.4,.4h-2.04c-.27,0-.4-.13-.4-.4V2.04c0-.27,.13-.4,.4-.4h6.6c1.95,0,3.52,.71,4.72,2.12,1.2,1.41,1.8,3.27,1.8,5.56,0,1.76-.37,3.27-1.12,4.52s-1.76,2.12-3.04,2.6c-.11,.03-.15,.09-.12,.2l4.36,12.6,.04,.16c0,.19-.12,.28-.36,.28h-2.08c-.24,0-.4-.11-.48-.32Zm-7.88-25.08V14.36c0,.11,.05,.16,.16,.16h3.6c1.23,0,2.21-.47,2.96-1.42,.75-.95,1.12-2.19,1.12-3.74s-.37-2.87-1.12-3.82c-.75-.95-1.73-1.42-2.96-1.42h-3.6c-.11,0-.16,.05-.16,.16Z"/><path class="cls-1" d="M245.14,28.08c-1.27-1.28-1.9-2.97-1.9-5.08V8.36c0-2.11,.63-3.8,1.9-5.08,1.27-1.28,2.93-1.92,4.98-1.92s3.76,.64,5.04,1.92,1.92,2.97,1.92,5.08v14.64c0,2.08-.64,3.77-1.92,5.06-1.28,1.29-2.96,1.94-5.04,1.94s-3.71-.64-4.98-1.92Zm7.96-1.78c.76-.81,1.14-1.86,1.14-3.14V8.24c0-1.31-.38-2.37-1.14-3.18-.76-.81-1.75-1.22-2.98-1.22s-2.17,.41-2.92,1.22c-.75,.81-1.12,1.87-1.12,3.18v14.92c0,1.28,.37,2.33,1.12,3.14,.75,.81,1.72,1.22,2.92,1.22s2.22-.41,2.98-1.22Z"/><path class="cls-1" d="M273.84,3.78c1.2,1.43,1.8,3.3,1.8,5.62s-.59,4.14-1.76,5.54c-1.17,1.4-2.72,2.1-4.64,2.1h-4.12c-.11,0-.16,.05-.16,.16v12.08c0,.27-.13,.4-.4,.4h-2.04c-.27,0-.4-.13-.4-.4V2.04c0-.27,.13-.4,.4-.4h6.6c1.95,0,3.52,.71,4.72,2.14Zm-2.16,9.5c.75-.96,1.12-2.24,1.12-3.84s-.37-2.89-1.12-3.86c-.75-.97-1.72-1.46-2.92-1.46h-3.64c-.11,0-.16,.05-.16,.16V14.56c0,.11,.05,.16,.16,.16h3.64c1.2,0,2.17-.48,2.92-1.44Z"/><path class="cls-1" d="M292.12,4.16h-9.28c-.11,0-.16,.05-.16,.16V14.24c0,.11,.05,.16,.16,.16h5.84c.27,0,.4,.13,.4,.4v1.72c0,.27-.13,.4-.4,.4h-5.84c-.11,0-.16,.05-.16,.16v9.96c0,.11,.05,.16,.16,.16h9.28c.27,0,.4,.13,.4,.4v1.68c0,.27-.13,.4-.4,.4h-11.88c-.27,0-.4-.13-.4-.4V2.08c0-.27,.13-.4,.4-.4h11.88c.27,0,.4,.13,.4,.4v1.68c0,.27-.13,.4-.4,.4Z"/><path class="cls-1" d="M307.72,29.36l-4.12-12.44c-.03-.08-.08-.12-.16-.12h-3.44c-.11,0-.16,.05-.16,.16v12.32c0,.27-.13,.4-.4,.4h-2.04c-.27,0-.4-.13-.4-.4V2.04c0-.27,.13-.4,.4-.4h6.6c1.95,0,3.52,.71,4.72,2.12,1.2,1.41,1.8,3.27,1.8,5.56,0,1.76-.37,3.27-1.12,4.52s-1.76,2.12-3.04,2.6c-.11,.03-.15,.09-.12,.2l4.36,12.6,.04,.16c0,.19-.12,.28-.36,.28h-2.08c-.24,0-.4-.11-.48-.32Zm-7.88-25.08V14.36c0,.11,.05,.16,.16,.16h3.6c1.23,0,2.21-.47,2.96-1.42,.75-.95,1.12-2.19,1.12-3.74s-.37-2.87-1.12-3.82c-.75-.95-1.73-1.42-2.96-1.42h-3.6c-.11,0-.16,.05-.16,.16Z"/><path class="cls-1" d="M327.4,2.08v1.68c0,.27-.13,.4-.4,.4h-5.28c-.11,0-.16,.05-.16,.16V29.28c0,.27-.13,.4-.4,.4h-2.04c-.27,0-.4-.13-.4-.4V4.32c0-.11-.05-.16-.16-.16h-4.96c-.27,0-.4-.13-.4-.4v-1.68c0-.27,.13-.4,.4-.4h13.4c.27,0,.4,.13,.4,.4Z"/><path class="cls-1" d="M335.84,29.24v-11.96c0-.11-.01-.17-.04-.2l-5.56-14.92-.04-.16c0-.21,.12-.32,.36-.32h2.16c.24,0,.4,.11,.48,.32l3.92,11.72c.03,.05,.07,.08,.12,.08s.09-.03,.12-.08l3.92-11.72c.08-.21,.24-.32,.48-.32h2.16c.13,0,.23,.05,.3,.14,.07,.09,.07,.21,.02,.34l-5.52,14.92s-.04,.09-.04,.2v11.96c0,.27-.13,.4-.4,.4h-2.04c-.27,0-.4-.13-.4-.4Z"/></g><g><path class="cls-1" d="M381.73,3.78c1.2,1.43,1.8,3.3,1.8,5.62s-.59,4.14-1.76,5.54c-1.17,1.4-2.72,2.1-4.64,2.1h-4.12c-.11,0-.16,.05-.16,.16v12.08c0,.27-.13,.4-.4,.4h-2.04c-.27,0-.4-.13-.4-.4V2.04c0-.27,.13-.4,.4-.4h6.6c1.95,0,3.52,.71,4.72,2.14Zm-2.16,9.5c.75-.96,1.12-2.24,1.12-3.84s-.37-2.89-1.12-3.86c-.75-.97-1.72-1.46-2.92-1.46h-3.64c-.11,0-.16,.05-.16,.16V14.56c0,.11,.05,.16,.16,.16h3.64c1.2,0,2.17-.48,2.92-1.44Z"/><path class="cls-1" d="M397.73,29.32l-1-4.96c0-.05-.02-.09-.06-.12-.04-.03-.09-.04-.14-.04h-7.24c-.05,0-.1,.01-.14,.04-.04,.03-.06,.07-.06,.12l-1.04,4.96c-.03,.24-.17,.36-.44,.36h-2.04c-.13,0-.23-.04-.3-.12-.07-.08-.09-.19-.06-.32l6.04-27.2c.05-.24,.2-.36,.44-.36h2.4c.27,0,.41,.12,.44,.36l6.08,27.2v.08c0,.24-.12,.36-.36,.36h-2.08c-.24,0-.39-.12-.44-.36Zm-7.96-7.44h6.28c.08,0,.12-.05,.12-.16l-3.16-15.4c-.03-.08-.05-.12-.08-.12s-.05,.04-.08,.12l-3.2,15.4c0,.11,.04,.16,.12,.16Z"/><path class="cls-1" d="M415.61,29.36l-4.12-12.44c-.03-.08-.08-.12-.16-.12h-3.44c-.11,0-.16,.05-.16,.16v12.32c0,.27-.13,.4-.4,.4h-2.04c-.27,0-.4-.13-.4-.4V2.04c0-.27,.13-.4,.4-.4h6.6c1.95,0,3.52,.71,4.72,2.12,1.2,1.41,1.8,3.27,1.8,5.56,0,1.76-.37,3.27-1.12,4.52s-1.76,2.12-3.04,2.6c-.11,.03-.15,.09-.12,.2l4.36,12.6,.04,.16c0,.19-.12,.28-.36,.28h-2.08c-.24,0-.4-.11-.48-.32Zm-7.88-25.08V14.36c0,.11,.05,.16,.16,.16h3.6c1.23,0,2.21-.47,2.96-1.42,.75-.95,1.12-2.19,1.12-3.74s-.37-2.87-1.12-3.82c-.75-.95-1.73-1.42-2.96-1.42h-3.6c-.11,0-.16,.05-.16,.16Z"/><path class="cls-1" d="M435.29,2.08v1.68c0,.27-.13,.4-.4,.4h-5.28c-.11,0-.16,.05-.16,.16V29.28c0,.27-.13,.4-.4,.4h-2.04c-.27,0-.4-.13-.4-.4V4.32c0-.11-.05-.16-.16-.16h-4.96c-.27,0-.4-.13-.4-.4v-1.68c0-.27,.13-.4,.4-.4h13.4c.27,0,.4,.13,.4,.4Z"/><path class="cls-1" d="M439.53,29.28V2.08c0-.27,.13-.4,.4-.4h2.12c.21,0,.36,.11,.44,.32l8.04,20.16c.03,.08,.07,.12,.12,.12s.08-.04,.08-.12V2.08c0-.27,.13-.4,.4-.4h2c.27,0,.4,.13,.4,.4V29.28c0,.27-.13,.4-.4,.4h-2.12c-.21,0-.36-.11-.44-.32l-8.04-20.16c-.03-.08-.07-.11-.12-.1-.05,.01-.08,.06-.08,.14l.04,20.04c0,.27-.13,.4-.4,.4h-2.04c-.27,0-.4-.13-.4-.4Z"/><path class="cls-1" d="M471.53,4.16h-9.28c-.11,0-.16,.05-.16,.16V14.24c0,.11,.05,.16,.16,.16h5.84c.27,0,.4,.13,.4,.4v1.72c0,.27-.13,.4-.4,.4h-5.84c-.11,0-.16,.05-.16,.16v9.96c0,.11,.05,.16,.16,.16h9.28c.27,0,.4,.13,.4,.4v1.68c0,.27-.13,.4-.4,.4h-11.88c-.27,0-.4-.13-.4-.4V2.08c0-.27,.13-.4,.4-.4h11.88c.27,0,.4,.13,.4,.4v1.68c0,.27-.13,.4-.4,.4Z"/><path class="cls-1" d="M487.13,29.36l-4.12-12.44c-.03-.08-.08-.12-.16-.12h-3.44c-.11,0-.16,.05-.16,.16v12.32c0,.27-.13,.4-.4,.4h-2.04c-.27,0-.4-.13-.4-.4V2.04c0-.27,.13-.4,.4-.4h6.6c1.95,0,3.52,.71,4.72,2.12,1.2,1.41,1.8,3.27,1.8,5.56,0,1.76-.37,3.27-1.12,4.52s-1.76,2.12-3.04,2.6c-.11,.03-.15,.09-.12,.2l4.36,12.6,.04,.16c0,.19-.12,.28-.36,.28h-2.08c-.24,0-.4-.11-.48-.32Zm-7.88-25.08V14.36c0,.11,.05,.16,.16,.16h3.6c1.23,0,2.21-.47,2.96-1.42,.75-.95,1.12-2.19,1.12-3.74s-.37-2.87-1.12-3.82c-.75-.95-1.73-1.42-2.96-1.42h-3.6c-.11,0-.16,.05-.16,.16Z"/><path class="cls-1" d="M495.41,28.04c-1.23-1.31-1.84-3.01-1.84-5.12v-.96c0-.27,.13-.4,.4-.4h2c.27,0,.4,.13,.4,.4v.84c0,1.41,.36,2.55,1.08,3.42,.72,.87,1.64,1.3,2.76,1.3s2.05-.41,2.8-1.24c.75-.83,1.12-1.92,1.12-3.28,0-.91-.18-1.69-.54-2.34-.36-.65-.83-1.23-1.4-1.72-.57-.49-1.53-1.25-2.86-2.26-1.33-.99-2.39-1.83-3.16-2.54-.77-.71-1.41-1.55-1.9-2.54-.49-.99-.74-2.15-.74-3.48,0-2.08,.6-3.73,1.8-4.94,1.2-1.21,2.76-1.82,4.68-1.82,2.03,0,3.65,.66,4.86,1.98,1.21,1.32,1.82,3.07,1.82,5.26v1c0,.27-.13,.4-.4,.4h-2c-.27,0-.4-.13-.4-.4v-1.04c0-1.41-.35-2.55-1.06-3.42-.71-.87-1.65-1.3-2.82-1.3-1.07,0-1.95,.38-2.64,1.14-.69,.76-1.04,1.83-1.04,3.22,0,.83,.15,1.55,.46,2.18s.77,1.22,1.38,1.78c.61,.56,1.52,1.29,2.72,2.2,1.6,1.17,2.79,2.13,3.58,2.86,.79,.73,1.39,1.53,1.82,2.4,.43,.87,.64,1.91,.64,3.14,0,2.19-.63,3.94-1.88,5.26-1.25,1.32-2.87,1.98-4.84,1.98s-3.57-.65-4.8-1.96Z"/></g><rect class="cls-2" x="195" y="1" width="2" height="29"/><rect class="cls-2" x="356" y="1" width="2" height="29"/></g></svg>